<svg enable-background="new -56 -21 300 105" height="105" viewBox="-56 -21 300 105" width="300" xmlns="http://www.w3.org/2000/svg"><path d="m-36.688 64.73v.012.031z"/><path d="m-36.859 65.861c-.025.002-.049.002-.072.002.027 0 .057 0 .072-.002z"/><path d="m-50.763-14.872c-.192 0-.372.075-.507.212-.133.134-.208.317-.208.509 0 .001.006 1.866.006 1.866 0 .326.204.603.512.688l.25.067c.572.152 1.434.38 2.113 1.153.828.939.872 2.112.872 2.124l.176 50.547.026 7.529-.05 12.256c0 .043.003.094.003.148 0 .551-.091 1.676-.531 2.313-1.025 1.486-2.392 1.654-2.452 1.664-.362.039-.64.346-.64.713l-.011 2.313c0 .191.073.369.205.504.138.139.324.215.516.215l29.783-.082c.372 0 .684-.285.714-.656l2.045-23.396c.015-.199-.054-.4-.191-.545-.132-.15-.326-.232-.529-.234l-3.754-.006c-.361 0-.664.266-.716.627l-.983 7.795c-.004.031-.563 3.961-.743 4.879-.162.828-.528 1.684-.65 1.967-.021.039-.044.09-.044.09-.354.842-.983 1.637-1.875 2.359-1.888 1.525-3.922 1.605-3.945 1.607 0 0-4.283-.049-5.32-.057 0-.676-.045-27.428-.045-27.428s-.185-45.266-.185-45.375c.009-.074.168-1.192 1.092-2.065.744-.706 2.093-.945 2.104-.945.348-.063.598-.361.598-.71v-1.924c0-.397-.319-.72-.718-.72zm2.704 4.021c-.943-1.072-2.165-1.278-2.692-1.437l-.012-1.863h16.916v1.924s-1.559.262-2.479 1.13c-1.174 1.112-1.317 2.537-1.317 2.537s.184 44.906.187 45.437c.005.527.044 27.766.044 27.766s.024.24.117.297c.15.09.367.072.367.072l5.577.059s2.259-.057 4.372-1.768c1.569-1.268 2.002-2.436 2.111-2.686.107-.252.533-1.201.72-2.152.181-.945.746-4.922.746-4.922l.987-7.799 3.75.008-2.037 23.396-29.788.078.012-2.307s1.724-.158 2.969-1.975c.729-1.061.656-2.863.656-2.863s.046-11.23.047-12.258c0-1.023-.021-7.529-.021-7.529l-.178-50.564s-.025-1.416-1.054-2.581z"/><path d="m21.206-14.531c-1.774.759-3.925 2.675-4.767 4.261-.923 1.738-.994 3.319-.994 3.388 0 .009.246 40.64.246 40.64 0 .066-.039 2.152.773 4.143.655 1.609 2.07 2.969 2.858 3.631 1.019.865 2.891 1.656 4.761 2.018 1.738.334 3.119.305 3.633.295l.142-.004.063.004c2.208.018 3.783-.35 4.715-.66 1.791-.588 3.6-1.719 5.372-3.348 1.067-.975 2.422-2.789 3.055-4.629.703-2.072.625-4.175.62-4.267v-11.701c0-.395-.324-.718-.72-.718h-4.33c-.189 0-.372.075-.51.212-.132.136-.208.319-.208.509l.029 12c0 .012.003 1.112-.3 2.15-.259.893-.812 1.695-1.099 1.994-.477.488-1.266 1.119-2.045 1.412-1.061.398-2.26.418-2.27.418-.045.004-.803.043-1.599-.215-.629-.211-1.363-.707-1.762-1.094-.433-.424-1.025-1.219-1.315-1.928-.342-.836-.38-1.651-.387-1.661l-.086-37.376c0-1.868.646-3.387 1.867-4.393.776-.642 3.581-2.041 6.187-.128 2.525 1.85 2.704 5.788 2.707 5.827v6.088c0 .398.321.72.719.72h4.29c.192 0 .376-.079.508-.211.138-.134.212-.321.212-.511l-.04-16.475c0-.396-.321-.717-.723-.717h-4.4c-.396 0-.714.322-.714.72v.83c-.437-.241-1.406-.769-2.634-1.246-1.669-.652-3.538-1.11-5.129-1.26-3.392-.322-6.592 1.217-6.725 1.282m-5.041 7.672s.055-1.458.91-3.076c.783-1.476 2.849-3.266 4.445-3.95 0 0 3.118-1.52 6.343-1.216 1.616.152 3.453.638 4.938 1.216 1.487.579 2.623 1.255 2.772 1.332.149.074.477.174.648.075.177-.106.185-.418.185-.418v-1.243h4.406l.041 16.473h-4.291v-6.114s-.154-4.292-3.002-6.382c-2.849-2.089-6.006-.724-7.067.155-1.439 1.188-2.125 2.934-2.125 4.949 0 2.013.089 37.41.089 37.41s.035.929.435 1.899c.349.857 1.028 1.736 1.483 2.174.437.422 1.259 1 2.037 1.258.947.313 1.827.256 1.827.256s1.314-.016 2.516-.463c1.016-.383 1.902-1.174 2.309-1.594.402-.414.989-1.324 1.271-2.289.338-1.155.332-2.354.332-2.354l-.033-12.001h4.33v11.729s.088 2.039-.581 4.006c-.612 1.793-1.94 3.49-2.857 4.33-1.005.92-2.865 2.453-5.112 3.199-2.053.678-4.238.617-4.555.617-.321 0-1.757.082-3.637-.279-1.699-.326-3.484-1.053-4.434-1.857-.857-.723-2.09-1.963-2.66-3.357-.763-1.873-.719-3.875-.719-3.875z"/><path d="m20.489-16.101c-.011.007-.026.012-.026.012 0 .001-.014.007-.016.007 0 .003-.004.008-.004.008-2.157.961-4.516 3.086-5.531 4.995-1.082 2.048-1.183 3.922-1.189 4.132-.005.009-.005.067-.005.067l.25 40.648s-.004.025-.004.078c0 .436.046 2.611.9 4.707.798 1.949 2.434 3.529 3.344 4.301 1.492 1.258 3.847 2.063 5.553 2.387 1.92.375 3.429.342 3.996.328 0 0 .103-.006.112-.006l.042.006c2.438.018 4.215-.395 5.267-.746 2.024-.67 4.042-1.922 5.998-3.717 1.138-1.041 2.742-3.066 3.517-5.346.651-1.902.722-3.826.722-4.563l-.001-.268v-13.413c0-.399-.324-.72-.72-.72h-7.788c-.19 0-.376.077-.508.211-.135.138-.211.317-.211.512l.033 13.728c0 .01-.004.886-.229 1.662-.171.578-.558 1.146-.685 1.275-.354.369-.93.818-1.408 1.002-.764.285-1.68.309-1.689.309-.015 0-.093.004-.093.004-.02 0-.485.014-.939-.139-.345-.109-.856-.453-1.102-.691-.259-.25-.72-.854-.92-1.338-.221-.538-.255-1.077-.255-1.083 0 0 0 0 0-.008 0-.515-.087-37.302-.087-37.302 0-1.353.416-2.384 1.238-3.061.39-.318 2.33-1.339 4.067-.066 1.823 1.335 2.002 4.463 2.002 4.492v7.759c0 .396.32.719.72.719h7.746c.192 0 .374-.076.51-.211.134-.137.211-.321.211-.512l-.048-19.923c-.003-.396-.326-.72-.719-.72h-7.857c-.335 0-.609.24-.684.555-.11-.046-.307-.131-.307-.131-1.818-.709-3.857-1.207-5.6-1.372-3.762-.354-7.282 1.281-7.603 1.432m7.538-.717c1.675.156 3.643.64 5.399 1.325.465.181.874.364 1.255.544 0-.456 0-.917 0-.917h7.857l.044 19.928h-7.747s0-7.695 0-7.792c-.007-.125-.2-3.506-2.296-5.04-2.127-1.56-4.45-.323-4.953.09-.993.824-1.496 2.041-1.496 3.619 0 0 .087 37.239.087 37.352.004.055.048.673.308 1.306.249.611.782 1.295 1.086 1.586.314.305.914.707 1.377.859.597.195 1.183.172 1.189.172l.077-.002c.01 0 1.042-.021 1.929-.355.625-.234 1.298-.777 1.677-1.172.197-.205.653-.879.858-1.578.257-.884.259-1.852.259-1.861l-.034-13.731h7.788v13.435.249c0 .702-.064 2.53-.676 4.327-.736 2.156-2.25 4.068-3.326 5.053-1.88 1.725-3.811 2.922-5.737 3.563-1.002.332-2.694.725-5.036.705h-.059l-.117.003c-.549.012-2.002.041-3.846-.314-1.615-.313-3.837-1.061-5.223-2.24-.858-.721-2.403-2.203-3.137-4.016-.891-2.182-.852-4.471-.852-4.518l-.244-40.646v-.041c.01-.188.101-1.911 1.116-3.819.945-1.787 3.268-3.865 5.285-4.728l-.077.035c.146-.069 3.591-1.726 7.265-1.381z"/><path d="m58.832-6.102-1.354.01c-.357.002-.652.261-.709.609l-3.093 20.208c-.028.206.031.418.167.579.137.156.339.249.546.249h7.822c.214 0 .414-.092.551-.255.138-.161.193-.374.162-.582l-3.376-20.218c-.062-.348-.362-.602-.716-.6m-1.35.73 1.357-.011 3.369 20.218h-7.821z"/><path d="m50.09-14.919c-.394 0-.716.318-.722.713l-.012 1.979c-.001.347.244.648.585.715.01 0 .734.136 1.375.492.411.224.773.604.955.883.221.338.472.916.539 1.435.088.744-.055 1.453-.055 1.462-.003.036-5.865 38.178-5.865 38.178-.147.809-.452 2.146-.659 2.511-.197.338-.509.887-.881 1.324-.487.566-1.063 1.023-1.072 1.029-.172.135-.276.344-.276.563v1.752c0 .217.1.42.266.555.167.139.386.193.597.15l9.522-1.895c.337-.066.578-.361.578-.705v-1.971c0-.195-.079-.385-.222-.52s-.333-.207-.529-.195c-.006 0-.444.02-.887-.102-.401-.104-.827-.385-.955-.508-.11-.104-.347-.45-.422-.763-.038-.143-.047-.29-.047-.418 0-.185.023-.323.023-.327.003-.015 1.602-10.176 1.867-11.866.504 0 8.854.001 8.989.001.25 1.437 1.579 9.039 1.579 9.039.004.007.092.509.092 1.034 0 .093-.005.187-.012.275-.024.417-.189.812-.274.964-.086.166-.435.604-.781.858-.437.322-.927.484-.933.488-.296.096-.497.373-.497.681v1.959c0 .205.085.398.234.533.155.137.357.201.564.18l13.277-1.43c.367-.041.645-.348.645-.713v-2.385c0-.293-.243-.577-.512-.687l-.67-.271c-.383-.2-.715-.464-.823-.587-.094-.108-.383-.436-.549-.795-.208-.466-.331-1.005-.331-1.01 0-.008-5.501-33.737-5.501-33.737-.002-.015-.26-1.527-.26-1.527l-.078-1.028c0-.293 0-.645.26-1.236.152-.348.574-.709.732-.844.164-.143.676-.476 1.225-.611.554-.142 1.173-.106 1.179-.104.199.013.395-.057.538-.191.15-.138.229-.326.229-.527v-2.08c0-.399-.32-.72-.716-.72zm0 .719h21.309v2.08s-.726-.047-1.405.123c-.658.169-1.267.551-1.518.765-.211.181-.703.601-.918 1.101-.315.71-.325 1.17-.325 1.52 0 .172 0 .512.085 1.133.07.49.262 1.545.262 1.545l5.507 33.775s.132.608.381 1.153c.197.433.514.803.667.974.191.21.597.525 1.027.748.38.198.792.323.792.323v2.385l-13.28 1.43v-1.959s.591-.185 1.138-.585c.45-.331.858-.855.99-1.095.125-.23.324-.721.36-1.26.048-.716-.093-1.483-.093-1.483l-1.616-9.242s-.02-.174-.205-.292c-.18-.12-.396-.098-.396-.098h-9.296s-.19-.01-.298.078c-.128.095-.138.266-.138.266l-1.898 12.114s-.1.52.024 1.042c.115.467.435.933.63 1.118.207.191.729.539 1.267.68.564.145 1.104.119 1.104.119v1.969l-9.524 1.896v-1.756s.627-.492 1.168-1.125c.44-.514.796-1.152.958-1.438.364-.635.75-2.756.75-2.756l5.858-38.145s.167-.812.06-1.692c-.078-.642-.375-1.322-.642-1.735-.253-.394-.708-.848-1.213-1.126-.765-.416-1.591-.57-1.591-.57z"/><path d="m71.399-16.647h-23.021c-.394 0-.716.317-.718.709l-.042 5.129c0 .343.241.646.582.708l1.421.277c.097.021.533.126.865.31.132.07.292.234.34.31.107.166.243.497.273.706l.015.32-.049.608c-.002.001-.015.08-.015.08-.004.015-5.863 38.162-5.863 38.162-.162.881-.401 1.794-.485 1.972-.131.233-.396.69-.661 1.003-.361.418-.812.781-.829.797.001 0-.654.514-.654.514-.171.137-.275.342-.275.564v.836 3.861c0 .215.095.416.266.555.163.135.38.189.594.148l12.973-2.582c.337-.068.576-.361.576-.701v-5.173c0-.197-.078-.383-.217-.521-.138-.133-.332-.207-.519-.201l-1.803.062-.387-.044c-.028-.006-.081-.029-.131-.058 0-.008 0-.019 0-.019 0 .006 1.078-6.834 1.078-6.834s.419-2.687.56-3.574h6.061c.18 1.024 1.332 7.612 1.332 7.612l.064.737-.005.157c-.001.073-.033.176-.061.235-.055.08-.199.24-.292.309-.176.129-.41.225-.465.242l-1.17.395c-.287.097-.484.368-.49.671l-.015 1.248v3.889c0 .201.088.398.242.531.151.135.352.203.556.18l16.514-1.838c.371-.041.389-.338.389-.705l.027-5.127c0-.293-.183-.558-.455-.666l-.779-.433c0 .001-.328-.132-.44-.18-.025-.015-.35-.233-.357-.237 0-.01-.23-.322-.23-.322 0-.002-.213-.651-.213-.651 0-.01-5.489-33.66-5.489-33.66 0-.004-.219-1.307-.249-1.474-.003-.058-.059-.748-.063-.817 0-.174.013-.271.092-.469.034-.035.293-.285.293-.285.054-.04.322-.198.523-.249.221-.055.543-.058.656-.054l1.825.107c.199.012.393-.058.535-.193.145-.137.226-.322.23-.52l.004-1.828v-3.817c0-.4-.317-.717-.716-.717h-1.728m1.724.722v3.808l-.007 1.828-1.826-.105c-.133-.008-.545-.01-.869.074-.348.085-.724.32-.817.399-.341.292-.443.43-.47.488-.171.397-.171.583-.171.83l.068.889s.249 1.468.254 1.502c0 0 5.472 33.568 5.495 33.706.031.138.129.494.261.783.044.102.151.277.383.538.062.064.288.24.54.376l.496.198 1.225.488v5.094l-16.735 1.807v-3.879l.017-1.246 1.173-.396c.1-.031.406-.159.656-.341.2-.146.427-.422.496-.534.039-.076.135-.317.151-.541.004-.07.004-.135.004-.208 0-.35-.05-.725-.073-.863 0 0-1.151-6.57-1.437-8.205-1.3 0-5.767 0-7.282 0-.47 2.994-1.726 11.001-1.729 11.021-.005.038-.012.098-.012.164 0 .063.006.129.019.18.017.066.091.2.149.274.093.076.322.215.504.262.237.061.509.066.591.066l1.797-.063v5.171l-12.969 2.582v-3.857l.001-.838.653-.52c.004 0 .508-.402.93-.891.303-.355.583-.842.759-1.154.132-.265.392-1.305.554-2.178l5.855-38.145.012-.078c.006-.003.067-.328.067-.734 0-.129-.008-.268-.023-.409-.044-.341-.231-.772-.38-1.01-.11-.168-.36-.417-.599-.549-.409-.225-.915-.355-1.077-.384l-1.414-.277.038-5.125h23.019 1.726v.002z"/><path d="m84.479-15.097c-1.146.456-1.982 1.152-2.883 1.947-2.056 1.811-2.271 4.566-2.282 4.684v9.979c0 .046 0 1.13.254 2.292.187.858.584 1.764.892 2.327.346.641.989 1.461 1.625 2.088.681.667 1.37 1.138 1.396 1.157.02.015 7.448 4.728 7.448 4.728.021.014.753.46 1.335.933.367.294.623.607.721.746l.034.044c.127.193.378.554.489.938.192.709.211 1.557.211 1.563v4.481c0 .024.015 1.24-.278 2.3-.138.486-.418.929-.633 1.185-.588.682-1.212 1.175-1.801 1.422-.838.354-1.779.367-1.958.361l-.14.002c-.284.005-.875.019-1.472-.173-.71-.226-1.521-.754-2.11-1.386-.407-.434-.803-1.145-1.008-1.813-.245-.79-.259-1.491-.259-1.498l-.034-5.585c-.005-.397-.324-.715-.719-.715h-3.282c-.398 0-.723.321-.723.717l-.029 15.427c0 .189.075.371.21.508.138.135.318.209.508.209h3.399c.195 0 .375-.074.511-.211.133-.139.207-.316.207-.506 0-.004-.022-1.34-.031-1.956.623.379 2.346 1.404 3.487 1.846 1.4.541 3.323.867 5.138.867 1.652 0 3.109-.16 4.832-.943 1.22-.55 2.408-1.479 3.537-2.752 1.849-2.087 2.03-4.931 2.036-5.05l.008-8.45c0-.046-.01-1.096-.263-2.235-.201-.898-.612-1.861-.903-2.419-.293-.548-.839-1.373-1.485-2.025-.853-.861-1.824-1.52-1.868-1.546-.021-.015-7.315-4.549-7.315-4.549-.781-.511-1.76-1.251-1.96-1.53-.156-.224-.563-.807-.738-1.301-.236-.679-.256-1.348-.256-1.355v-5.771c0-.006.001-.744.361-1.517.175-.37.516-.811.947-1.212.748-.698 1.941-1.167 2.967-1.167 1.105 0 3.206.673 4.194 2.123.396.583.793 1.17.974 1.74.449 1.413.373 2.81.373 2.824l-.008 2.442c0 .399.32.719.721.719h3.509c.395 0 .715-.32.715-.719v-13.295c0-.399-.32-.722-.715-.722h-3.642c-.394 0-.714.322-.714.722v1.579c-.734-.543-1.983-1.42-2.882-1.842-1.169-.545-2.252-.923-3.215-1.129-1.551-.331-3.094-.355-3.156-.358-.556-.004-2.523.132-4.277.83m-4.455 32.724h3.282l.037 5.591s.005.791.283 1.702c.232.736.673 1.557 1.177 2.091.665.713 1.566 1.312 2.417 1.582.823.259 1.601.2 1.822.206.249 0 1.28-.012 2.24-.421.788-.331 1.502-.957 2.07-1.618.293-.343.622-.881.785-1.458.324-1.179.306-2.495.306-2.495v-4.494s-.022-.931-.245-1.742c-.15-.535-.472-.989-.619-1.199-.144-.206-.446-.564-.858-.896-.626-.507-1.4-.979-1.4-.979l-7.432-4.713s-.656-.448-1.3-1.079c-.606-.6-1.197-1.367-1.494-1.917-.265-.483-.641-1.326-.817-2.138-.246-1.096-.243-2.138-.243-2.138v-9.928s.184-2.558 2.04-4.192c.809-.719 1.616-1.396 2.671-1.822 1.632-.648 3.476-.782 3.999-.777 0 0 1.52.019 3.019.337 1.273.274 2.507.824 3.06 1.082 1.262.587 3.357 2.217 3.357 2.217s.29.16.438.087c.146-.069.105-.36.105-.36v-2.334h3.641v13.292h-3.507v-2.396s.097-1.517-.402-3.086c-.212-.68-.651-1.315-1.067-1.928-1.131-1.662-3.426-2.44-4.786-2.44-1.203 0-2.581.542-3.457 1.361-.458.426-.88.939-1.109 1.439-.434.94-.43 1.816-.43 1.816v5.792s.024.772.301 1.572c.207.595.654 1.228.83 1.475.403.571 2.17 1.73 2.17 1.73l7.291 4.536s.945.636 1.76 1.456c.625.626 1.112 1.397 1.356 1.856.255.477.651 1.381.839 2.24.238 1.075.241 2.079.241 2.079v8.407s-.155 2.689-1.856 4.619c-.878.984-1.982 1.978-3.3 2.573-1.508.69-2.819.882-4.533.882-1.718 0-3.54-.298-4.88-.817-1.335-.522-3.615-1.942-3.615-1.942s-.367-.286-.617-.197c-.249.088-.24.499-.24.499l.04 2.418h-3.396z"/><path d="m83.842-16.7c-1.4.558-2.401 1.387-3.387 2.256-2.532 2.234-2.834 5.491-2.86 5.856l-.005.061v10.044c0 .22.009 1.375.293 2.658.291 1.307.89 2.462 1.063 2.784.426.781 1.185 1.756 1.932 2.493.756.739 1.494 1.257 1.634 1.352.013.009.059.041.059.041.009.004 7.443 4.721 7.443 4.721.006.003 1.173.817 1.173.817l.377.378.032.049c.179.258.232.37.247.417.103.38.147.933.151 1.143v4.473c0 .171-.012 1.065-.214 1.803-.056.193-.184.411-.282.522-.406.47-.825.819-1.165.964-.375.158-.91.226-1.267.222-.015 0-.18.004-.18.004-.215.004-.597.011-.927-.094-.435-.135-.985-.505-1.376-.919-.225-.246-.492-.735-.617-1.144-.166-.529-.18-1.006-.18-1.027l-.046-7.27c-.002-.398-.326-.715-.723-.715h-6.717c-.401 0-.722.321-.722.718l-.035 18.875c0 .189.074.375.21.51s.318.211.51.211h6.881c.189 0 .376-.076.512-.215.129-.135.201-.32.201-.502 0-.004-.004-.391-.009-.721.405.201.778.369 1.087.492 1.613.625 3.715.982 5.765.982 2.223 0 3.827-.314 5.545-1.094 1.438-.654 2.824-1.726 4.117-3.184 2.2-2.487 2.445-5.735 2.465-6.096.008-.015.008-.076.008-.09v-8.458c0-.13-.011-1.302-.296-2.605-.237-1.068-.704-2.176-1.07-2.856-.166-.319-.794-1.439-1.777-2.432-.979-.982-2.084-1.731-2.129-1.766-.011-.005-.069-.041-.069-.041-.009-.006-7.302-4.542-7.302-4.542-.665-.438-1.359-.977-1.507-1.13-.328-.472-.44-.71-.47-.806-.139-.403-.166-.825-.167-.841l.001-5.71c0 .006.019-.395.205-.795.063-.134.261-.399.556-.677.418-.39 1.207-.699 1.789-.699.768 0 2.188.519 2.767 1.369.322.472.655.961.756 1.289.346 1.083.294 2.194.29 2.205 0 .013-.003.077-.003.088v4.176c0 .399.321.72.717.72h6.96c.397 0 .715-.321.715-.72v-16.747c0-.4-.32-.72-.715-.72h-7.086c-.398 0-.72.32-.72.72v.123c-.148-.079-.294-.165-.428-.226-1.286-.6-2.489-1.023-3.582-1.252-1.716-.368-3.425-.393-3.495-.395-.686-.01-2.909.145-4.933.953m4.925-.233c.068 0 1.708.027 3.352.376 1.04.224 2.192.627 3.427 1.203.45.21.955.514 1.453.832 0-.441 0-1.38 0-1.38h7.089v16.741h-6.963v-4.177l.006-.047c0-.014.064-1.242-.322-2.463-.137-.431-.489-.953-.85-1.476-.751-1.098-2.429-1.683-3.359-1.683-.764 0-1.724.376-2.28.896-.333.31-.604.646-.722.897-.256.556-.269 1.099-.269 1.094v5.747c.002.044.03.545.207 1.045.122.352.456.833.59 1.026.188.216 1.001.833 1.687 1.283l7.292 4.532.061.037c.043.029 1.092.744 2.016 1.673.909.924 1.503 1.965 1.659 2.264.34.64.773 1.676.998 2.672.272 1.224.278 2.327.278 2.452v8.457l-.003.049c-.02.336-.24 3.354-2.287 5.663-1.228 1.381-2.526 2.392-3.877 3.005-1.616.732-3.132 1.027-5.246 1.027-1.966 0-3.974-.336-5.506-.936-.626-.242-1.395-.635-2.085-1.016 0 .021.035 1.914.035 1.914h-6.881l.037-18.876h6.718s.047 7.282.047 7.289c0 .009.017.579.212 1.219.163.514.481 1.101.785 1.422.472.504 1.129.94 1.678 1.115.44.141.904.131 1.15.126h.168c.401.001 1.046-.07 1.555-.285.446-.187.951-.596 1.429-1.155.151-.178.342-.489.431-.799.23-.831.239-1.808.239-1.997 0-.017 0-4.49 0-4.49-.002-.203-.044-.834-.179-1.317-.059-.22-.245-.489-.344-.634l-.036-.047c-.043-.064-.234-.304-.517-.532-.529-.425-1.21-.847-1.24-.864l-7.434-4.715-.044-.032c-.083-.053-.807-.554-1.542-1.271-.7-.691-1.405-1.601-1.801-2.321-.163-.298-.719-1.38-.99-2.59-.267-1.235-.278-2.359-.278-2.506v-9.994l.006-.059c.024-.333.292-3.323 2.617-5.369.936-.827 1.884-1.61 3.179-2.124 1.908-.765 4.004-.908 4.654-.901z"/><path d="m107.664-14.913c-.195 0-.377.077-.514.213-.131.135-.206.32-.206.51l.005 2.054c.005.349.252.645.592.708.005 0 .579.106 1.114.354.497.23.957.605 1.134.788.105.115.484.533.647.998.204.577.229 1.231.229 1.24 0 0 .089 34.654.089 34.656 0-.012-.021.594-.188 1.178-.14.472-.419.943-.572 1.123-.186.213-.651.638-1.123.874-.567.277-1.178.382-1.181.384-.35.058-.604.357-.604.709v2.175c0 .365.279.676.648.709.051.006 5.132.502 7.784.672.985.064 1.655.139 5.372.543l2.033.227c.205.021.404-.043.559-.18.153-.137.235-.332.235-.535v-2.05c0-.361-.264-.669-.618-.716-.011 0-.446-.063-.903-.263-.524-.224-1.109-.623-1.288-.811-.206-.207-.583-.7-.744-1.1-.226-.544-.241-1.072-.241-1.08 0 0-.043-14.39-.051-16.373.491 0 3.877-.005 3.877-.005.02 0 .487-.005.976.212.27.123.629.4 1.06.823.171.163.45.596.634 1.04.236.572.362 1.157.362 1.166.073.333.363.572.707.572h3.139c.397 0 .718-.323.718-.718v-11.105c0-.399-.32-.719-.718-.719h-3.212c-.362 0-.671.266-.715.625 0 .005-.066.491-.284.982-.205.473-.586.978-.729 1.134-.123.127-.494.519-.9.702-.411.186-.916.222-.918.222 0 0-3.637 0-4.031 0 0-.557-.026-15.944-.026-16.402 1.051 0 5.011.003 5.011.003s.871.019 1.712.298c.578.193 1.168.622 1.425.844.3.257.833.872 1.076 1.427.313.695.344 1.375.344 1.38v3.091c0 .397.318.72.713.72h3.806c.402 0 .719-.322.719-.72v-11.86c0-.397-.321-.721-.719-.721zm0 .721h26.232v11.857h-3.801v-3.115s-.026-.806-.402-1.646c-.294-.67-.902-1.366-1.264-1.681-.332-.286-1.002-.76-1.668-.981-.965-.322-1.938-.337-1.938-.337h-5.242s-.278-.016-.402.097c-.116.109-.087.382-.087.382l.028 16.929s-.024.25.09.345c.114.093.407.081.407.081h4.299s.623-.039 1.169-.284c.505-.227.921-.654 1.125-.86.197-.212.621-.784.865-1.342.269-.599.342-1.177.342-1.177h3.212v11.104h-3.139s-.132-.647-.404-1.298c-.214-.52-.545-1.029-.792-1.272-.244-.234-.774-.741-1.271-.967-.652-.293-1.269-.276-1.269-.276l-4.165.008s-.186-.046-.321.097c-.153.162-.116.382-.116.382l.055 16.629s.016.65.297 1.334c.216.535.675 1.11.893 1.334.261.262.917.708 1.516.966.569.246 1.094.316 1.094.316v2.05c-5.607-.613-6.28-.695-7.44-.771-2.668-.174-7.761-.664-7.761-.664v-2.174s.713-.114 1.389-.451c.578-.289 1.116-.781 1.344-1.049.227-.261.549-.816.723-1.391.196-.687.213-1.38.213-1.38l-.089-34.673s-.019-.76-.269-1.464c-.193-.538-.585-1.016-.807-1.25-.243-.253-.784-.681-1.352-.945-.636-.294-1.287-.41-1.287-.41z"/><path d="m133.896-16.637h-27.966c-.19 0-.374.077-.511.213-.134.134-.209.318-.209.509l.021 5.212c0 .344.246.638.586.702l1.411.266c.075.015.423.096.701.222.258.124.546.351.607.418.147.15.255.328.279.383.084.243.122.595.126.717l.09 34.556c-.001.076-.035.442-.122.74-.063.222-.204.451-.238.5-.062.064-.35.324-.57.433-.246.125-.58.207-.697.226l-1.434.248c-.347.058-.596.355-.601.705l-.009 1.456v3.743c0 .371.281.68.65.715l1.559.154c.89.086 5.345.508 7.839.672.951.063 1.609.135 5.29.539l3.952.432c.202.023.407-.041.56-.18.155-.137.239-.332.239-.533l-.005-5.467c0-.359-.258-.661-.61-.713l-1.492-.22-.459-.139c-.314-.135-.686-.388-.769-.462-.066-.063-.295-.377-.35-.511-.08-.19-.109-.409-.117-.508 0 0 0-.004 0-.007 0-.297-.03-11.595-.043-14.565.812-.002 2.151-.005 2.151-.005.027 0 .162.02.261.061 0 .003.183.11.564.481 0 .008.147.226.247.473l.271.853.287 1.369c.07.333.36.57.699.57l1.403.005h4.866c.397 0 .718-.322.718-.721v-14.553c0-.397-.32-.719-.718-.719h-6.436c-.357 0-.659.265-.71.616l-.213 1.493-.157.532c-.108.252-.353.582-.411.649-.232.244-.351.309-.351.309 0-.002-.266.055-.306.067-.081 0-1.4 0-2.204 0 0-1.278-.023-12.656-.026-12.95.974.002 3.283.002 3.283.002.035.001.632.035 1.169.211.239.082.63.33.844.513.162.147.516.574.626.825.165.367.191.74.196.753l-.005 4.738c0 .396.32.722.718.722h7.253c.399 0 .72-.325.72-.722v-15.31c0-.396-.32-.72-.72-.72h-1.727m1.728.722v15.31h-7.253s0-4.679 0-4.787c-.003-.05-.037-.519-.255-.998-.165-.371-.584-.875-.81-1.075-.269-.228-.736-.535-1.091-.651-.671-.228-1.392-.25-1.392-.25s-2.561 0-4.002 0c.004 1.965.021 12.351.022 14.385h2.979c.119-.013.377-.055.554-.131.084-.038.271-.15.581-.479.086-.092.384-.498.539-.845.151-.351.21-.711.21-.714l.21-1.496h6.436v14.552h-4.863-1.403l-.284-1.373c0-.002-.11-.503-.308-.981-.145-.337-.344-.634-.418-.709-.497-.485-.724-.602-.769-.622-.224-.099-.463-.124-.554-.124 0 0-1.642 0-2.875.003.013 3.799.05 15.331.05 15.331 0 .004.018.372.165.738.107.258.405.647.521.767.12.111.569.421.976.6.329.14.647.188.647.188l1.488.221v5.466l-3.945-.432c-3.7-.406-4.363-.48-5.326-.543-2.671-.172-7.611-.65-7.819-.672l-1.558-.148v-3.739l.01-1.456 1.433-.247c.134-.022.554-.12.902-.291.325-.163.689-.495.801-.627.075-.083.28-.418.372-.751.114-.369.149-.795.152-.941 0-1.002-.091-34.578-.091-34.578-.005-.141-.048-.584-.169-.935-.064-.173-.24-.438-.433-.638-.108-.113-.474-.406-.833-.57-.336-.161-.742-.255-.865-.279l-1.414-.265-.017-5.212h27.965 1.731v-.002z"/><path d="m152.311-14.905-13.795.035c-.401.003-.718.324-.718.722v2.027c0 .257.195.524.416.653l.777.459c.354.252.645.518.733.637.147.189.442.565.601.969.194.497.242 1.107.242 1.112 0-.055.036 38.58.036 38.58 0 .007 0 .588-.135 1.162-.133.542-.401 1.051-.509 1.191-.192.247-.645.745-1.139 1.009-.534.291-1.188.379-1.193.379-.36.045-.626.352-.626.715v2.115c0 .338.236.631.567.705l8.479 1.846c1.279.277 7.11 1.74 7.165 1.75.217.059.442.008.618-.129.177-.137.276-.346.276-.564l-.011-2.322c0-.322-.218-.602-.534-.688 0-.002-.46-.131-.914-.406-.64-.387-1.255-.953-1.392-1.131-.125-.164-.533-.736-.707-1.303-.191-.623-.199-1.285-.199-1.324 0 0-.008-40.389-.008-41.182.008-.072.07-.724.244-1.333.113-.371.315-.732.419-.876.154-.204.572-.612.987-.913l.615-.366c.214-.13.421-.402.421-.654v-2.159c0-.188-.074-.371-.21-.51-.136-.134-.318-.211-.506-.206m-13.795.756 13.795-.042v2.16s-.36.163-.739.441c-.442.32-.925.774-1.139 1.066-.154.211-.397.643-.527 1.1-.217.722-.279 1.499-.279 1.499l.008 41.211s-.008.779.229 1.547c.202.648.634 1.273.82 1.518.221.295.929.916 1.599 1.32.55.328 1.102.477 1.102.477l.008 2.318s-5.887-1.471-7.183-1.758c-1.298-.285-8.488-1.846-8.488-1.846v-2.117s.774-.098 1.448-.463c.645-.346 1.175-.957 1.367-1.209.184-.239.486-.849.629-1.456.162-.671.162-1.329.162-1.329l-.044-38.634s-.051-.708-.287-1.319c-.194-.508-.538-.94-.699-1.147-.16-.209-.521-.522-.881-.778-.438-.319-.899-.532-.899-.532v-2.027z"/><path d="m154.035-16.639-17.243.051c-.397 0-.718.323-.718.718v4.736c0 .257.132.494.353.621l.995.578s.482.281.579.344c.025.019.404.332.404.332.045.059.243.317.311.484.065.164.105.426.129.576 0 .097.036 38.489.036 38.489s-.004.398-.092.754c-.063.259-.188.508-.229.578-.14.178-.395.426-.557.512-.195.105-.519.176-.61.188l-1.485.209c-.357.047-.62.349-.626.704l-.013 1.504v3.514c0 .342.244.629.572.703l9.843 2.143c.873.193 4.221 1.016 7.062 1.73.048.008 2.206.551 2.206.551.213.055.435.006.612-.131.177-.135.279-.346.279-.568l-.026-5.838c0-.318-.213-.6-.523-.686l-1.255-.363-.493-.219c-.439-.26-.87-.652-.944-.736-.165-.227-.35-.541-.404-.729-.089-.291-.118-.682-.118-.814 0 0-.011-40.175-.011-41.087.019-.154.07-.564.184-.944l.158-.348c.037-.05.303-.309.583-.515.066-.042 1.244-.75 1.244-.75.188-.114.31-.297.344-.507l.166-1.064c.003-.038.011-.075.011-.111v-3.885c0-.193-.079-.377-.218-.513-.13-.136-.314-.211-.506-.211m.004.722v3.887l-.17 1.062-1.278.773c-.357.255-.688.587-.77.693-.056.08-.191.33-.266.56-.132.466-.191.962-.205 1.104 0 1.877.011 41.129.011 41.129 0 .15.021.625.146 1.025.104.324.357.73.545.986.134.15.634.594 1.12.887.32.193.664.293.664.293l1.263.361.022 5.832-2.155-.537c-.06-.016-5.878-1.471-7.135-1.748l-9.843-2.143v-3.506l.014-1.508 1.488-.205c.126-.016.549-.102.854-.267.314-.17.656-.531.807-.727.063-.099.239-.462.332-.825.107-.449.11-.924.11-.924s-.04-38.344-.04-38.537c-.011-.142-.066-.514-.174-.79-.103-.264-.323-.552-.441-.707-.052-.055-.247-.242-.538-.447l-.618-.367-.994-.578v-4.733l15.516-.043z"/><path d="m158.246-14.9c-.384 0-.707.309-.718.695l-.074 2.019c-.012.318.19.605.489.708.784.257 2.049.818 2.409 1.248.226.264.505.731.638 1.176.206.696.214 1.413.214 1.419v43.502c0-.02-.034.715-.214 1.328-.126.414-.354.725-.527.914-.155.168-.516.41-.954.551-.582.193-1.208.234-1.212.238-.379.027-.671.336-.671.715v2.219c0 .316.207.598.513.689.063.018 6.075 1.834 10.208 3.23 4.122 1.393 12.724 4.674 12.811 4.707.196.078.424.059.612-.047.188-.105.316-.295.35-.504l3.592-21.214c.033-.209-.026-.422-.161-.583-.134-.163-.339-.255-.55-.256l-2.25-.008c-.325 0-.609.214-.696.524l-2.937 10.321c0 .006-.276.699-.276.699-.236.469-.581.967-.862 1.244-.258.256-.92.725-1.337.957-.338.188-.542.234-.811.281-.273.051-1.304.121-1.83.002-.097-.02-.233-.063-.233-.063-.047-.016-2.529-.789-2.529-.789s-.078-.039-.147-.072c-.005-.021-.005-.049-.005-.049s-.038-49.084-.038-49.09c0 .017.041-.644.331-1.273.186-.405.638-.883.852-1.082.258-.236 1.256-.685 2.037-.969.284-.104.476-.375.476-.676v-1.989c0-.399-.325-.722-.718-.722zm0 .723h15.781v1.989s-1.762.636-2.281 1.115c-.214.195-.771.759-1.023 1.31-.357.78-.395 1.574-.395 1.574l.032 49.062s-.019.363.11.523c.129.168.554.313.554.313l2.482.775s.242.076.35.098c.442.1 1.751.053 2.027.006.268-.041.578-.104 1.083-.355.504-.258 1.215-.791 1.514-1.088.36-.357.75-.938.997-1.432.229-.449.328-.822.328-.822l2.937-10.324 2.258.009-3.588 21.213s-8.652-3.305-12.842-4.721c-4.191-1.416-10.225-3.234-10.225-3.234v-2.221s.702-.045 1.389-.264c.515-.17.998-.471 1.251-.752.258-.275.539-.686.694-1.199.21-.713.239-1.527.239-1.527v-43.507s0-.81-.239-1.621c-.166-.563-.51-1.116-.781-1.437-.656-.78-2.727-1.468-2.727-1.468z"/><path d="m213.987-14.927c-.34 0-.634.24-.704.576 0 0-6.781 32.735-6.841 33.021-.357-.005-1.223-.015-1.559-.015-.021-.072-.051-.152-.051-.152 0 .018-6.903-32.837-6.903-32.837-.073-.336-.365-.573-.704-.573h-13.147c-.19 0-.374.078-.508.215-.132.137-.21.322-.21.516l.034 2.096c.003.348.261.642.597.7.011 0 .629.107 1.215.379.523.248 1.006.665 1.209.886.231.259.53.775.662 1.267.129.504.107 1.024.107 1.029-.007.043.021 52.531.021 52.531 0 .023.011.48-.154.918-.158.436-.526.885-.711 1.064-.21.193-.615.469-1.062.643-.618.238-1.325.373-1.333.373-.342.059-.589.361-.589.703v2.496c0 .285.177.547.435.666l5.102 2.27 6.233 2.893c.221.102.481.084.688-.047.206-.131.332-.357.332-.605v-2.197c0-.291-.177-.553-.442-.664-.005-.004-.612-.252-1.198-.617-.497-.307-.928-.689-1.083-.893-.202-.268-.597-.857-.77-1.391-.225-.672-.243-1.334-.243-1.342 0 0 .04-38.997.048-42.774h1.816c.692 3.207 9.301 43.056 9.301 43.056.071.334.232 1.629.715 1.643.45.014.674-1.301.744-1.635 0 0 8.918-42.788 8.978-43.083.456.005 1.502.012 1.931.016-.005 3.917-.037 55.928-.037 55.928-.026.938-.221 2.217-.453 2.5l-.118.156c-.243.311-.611.789-1.062 1.055-.61.359-1.414.479-1.422.482-.35.049-.615.354-.615.711v2.195c0 .395.325.715.718.715h17.075c.194 0 .375-.07.512-.207.137-.139.21-.32.21-.508l-.018-2.277c-.005-.363-.276-.668-.642-.707-.011 0-.545-.064-1.057-.24-.531-.184-.991-.482-1.136-.627-.194-.193-.662-.729-.847-1.131-.258-.568-.269-1.104-.269-1.105 0 0-.033-71.207-.033-71.212 0 .016.018-.558.229-1.11.154-.416.489-.865.74-1.104.209-.211.634-.52 1.094-.722.615-.274 1.255-.414 1.255-.414.333-.073.572-.364.572-.705v-2.079c0-.396-.32-.722-.719-.722h-15.933m-29.909.737h13.147l6.903 32.855s.084.358.229.52c.147.159.384.182.384.182l1.903.019s.218-.01.303-.098c.081-.089.165-.332.165-.332l6.875-33.164h15.931v2.083s-.704.149-1.398.463c-.523.23-1.028.584-1.312.864-.295.294-.697.822-.899 1.368-.258.681-.28 1.363-.28 1.363l.033 71.211s0 .666.335 1.4c.236.533.785 1.137.995 1.35.247.24.821.586 1.404.789.603.211 1.215.277 1.215.277l.019 2.268h-17.075v-2.193s.93-.137 1.681-.574c.656-.391 1.124-1.063 1.382-1.383.541-.676.607-2.949.607-2.949l.037-56.149s.015-.265-.147-.406c-.132-.121-.368-.091-.368-.091l-2.303-.018s-.239-.02-.342.062c-.097.083-.155.362-.155.362l-9.036 43.22-9.374-43.252s-.042-.252-.14-.33c-.097-.075-.297-.044-.297-.044h-2.316s-.168-.037-.36.081c-.092.063-.081.319-.081.319l-.045 43.103s.016.766.276 1.561c.21.641.652 1.307.881 1.602.229.297.748.734 1.274 1.066.649.402 1.305.668 1.305.668v2.197s-3.345-1.576-6.236-2.895c-2.892-1.326-5.124-2.281-5.124-2.281v-2.496s.776-.135 1.47-.406c.563-.221 1.034-.553 1.288-.791.269-.248.7-.791.896-1.338.216-.582.198-1.166.198-1.166l-.021-52.485s.033-.624-.137-1.262c-.163-.611-.521-1.227-.818-1.555-.28-.314-.844-.778-1.436-1.061-.69-.322-1.397-.438-1.397-.438z"/><path d="m232.445 65.42c-.003-.365-.279-.67-.637-.713l-1.522-.174-.691-.154c-.239-.084-.449-.215-.521-.262-.184-.193-.407-.488-.452-.578-.097-.223-.115-.449-.115-.451l-.036-71.097c.012-.066.044-.351.122-.563.048-.125.209-.361.327-.479.055-.053.31-.249.594-.376.438-.196.92-.303.925-.307l1.354-.296c.331-.071.564-.363.564-.7l.006-1.391v-3.811c0-.398-.318-.718-.721-.718h-1.725-17.335c-.342 0-.637.239-.707.574 0 0-5.098 24.618-6.233 30.073-1.146-5.452-6.317-30.057-6.317-30.057-.065-.335-.36-.574-.699-.574h-16.301c-.19 0-.375.079-.511.216-.137.137-.207.323-.203.515l.074 5.277c.011.345.261.639.597.697l1.422.246c.088.015.463.1.766.242.261.125.563.375.655.476.055.063.221.34.28.557.048.184.056.433.048.501v.069l.021 33.969-4.028-.014c-.321-.003-.609.212-.693.521 0 0-3.264 11.477-3.286 11.547-.014.039-.155.375-.185.439-.154.316-.397.66-.519.787-.126.119-.634.502-.906.645 0 0-.177.072-.229.09-.166.004-1.165.01-1.344.01-.126-.035-.929-.285-1.478-.449 0-1.035-.034-47.82-.034-47.82.008-.044.053-.364.174-.624.036-.074.221-.305.409-.485.161-.103.803-.412 1.502-.668l1.136-.414c.283-.105.468-.373.468-.675l.008-4.922c0-.192-.079-.375-.215-.511-.132-.134-.316-.209-.505-.209h-1.728-17.441c-.382 0-.707.307-.718.693 0 0-.18 4.985-.18 4.994 0 .309.194.583.489.681l1.23.411c.755.255 1.484.636 1.653.768.1.129.229.354.276.509.134.445.145.946.145.949v43.436c-.008.111-.048.564-.145.885-.014.061-.063.125-.113.193.003 0 .003-.004.025-.02 0 0-.022.016-.025.021s0 0-.008 0c-.056.027-.239.119-.239.119-.284.096-.667.146-.804.154l-1.594.117c-.376.031-.665.34-.668.715l-.008 1.605v3.5c0 .318.211.596.513.689l1.23.371c.645.195 6.272 1.9 10.147 3.213 3.901 1.318 11.841 4.34 12.731 4.68.014.004.797.305 1.381.523.053.039.1.072.152.102l6.133 2.723c-.011-.006 8.657 4.027 8.657 4.027.221.102.479.086.691-.045.203-.135.332-.361.332-.609l.004-2.697v-3.355c0-.287-.178-.551-.443-.66l-1.064-.441-.946-.492c-.331-.207-.593-.439-.64-.494-.134-.176-.392-.588-.486-.867-.137-.406-.152-.838-.152-.844 0 0 .026-25.63.037-35.017 1.606 7.396 8.347 38.323 8.347 38.323s.123.545.307.76c.18.213.666.182.666.182h1.762s.291-.037.512-.242c.221-.207.368-.67.368-.67s6.564-31.359 8.071-38.583c-.008 10.086-.029 48.445-.029 48.445-.023.68-.147 1.389-.218 1.6-.14.184-.405.527-.57.623-.222.131-.639.236-.8.262l-1.464.225c-.35.057-.607.354-.61.707l-.008 1.48v3.926c0 .398.321.717.715.717h20.543c.189 0 .376-.072.51-.211.132-.135.21-.316.21-.506.004-.001-.04-5.534-.04-5.534m-21.217 5.539v-3.92l.012-1.484 1.462-.225c.161-.025.7-.141 1.058-.35.291-.17.581-.555.78-.807 0 0 .034-.049.066-.092.133-.285.27-1.221.291-1.949 0 0 .037-52.595.037-54.93-.053 0-.053 0-.103 0-.303 1.443-9.324 44.631-9.324 44.631s-.1.311-.195.414c-.092.098-.31.098-.31.098l-1.359-.02s-.194.023-.327-.105c-.13-.123-.181-.391-.181-.391s-9.338-43.06-9.666-44.588c-.011 7.263-.045 41.711-.045 41.711 0 .008.019.537.188 1.053.129.379.432.863.615 1.096.077.102.405.395.818.648.504.32 1.041.541 1.046.541l1.061.443v3.352l-.004 2.701-8.672-4.029-5.087-2.262-1.76-.779-.833-.318c-.089-.033-8.671-3.305-12.779-4.695-4.111-1.395-10.107-3.203-10.171-3.217l-1.226-.373v-3.5l.008-1.602 1.599-.119c.14-.008.589-.063.968-.188.258-.084.473-.227.531-.285.084-.086.231-.271.299-.506.116-.398.158-.908.169-1.092 0-.096 0-43.447 0-43.447 0-.007-.008-.595-.169-1.145-.081-.285-.288-.621-.438-.805-.221-.226-1.172-.685-1.961-.95l-1.223-.412.177-4.967h17.447 1.723v4.921l-1.134.413c-.688.252-1.5.622-1.717.784-.221.207-.52.551-.607.746-.166.36-.221.779-.236.921 0 .143.034 47.101.034 48.347.681.213 1.564.518 1.715.555.141.037.436.105.438.105.313.047 1.275.02 1.501-.025.043-.01.184-.037.437-.172.344-.174.91-.6 1.091-.773.199-.197.486-.621.671-.986 0 0 .202-.508.21-.514l3.294-11.583 4.033.016.722-.009-.007-.709-.016-33.909v-.058-.039c.005-.104 0-.435-.074-.719-.089-.333-.313-.714-.441-.854-.145-.158-.521-.474-.884-.645-.376-.174-.807-.274-.954-.3l-1.411-.246-.085-5.278h16.3s6.704 31.907 7.024 33.428c.421-2.046 6.933-33.447 6.933-33.447h17.336 1.724v3.81 1.392l-1.362.293c-.004.003-.546.123-1.062.353-.365.163-.684.404-.799.521-.174.169-.405.49-.494.739-.124.32-.166.687-.169.813 0 1.173.034 71.128.034 71.128 0 .008.011.352.18.719.092.203.409.604.625.824.097.072.413.273.763.396.336.115.723.178.844.191l1.522.174.044 5.537h-20.545z"/><path d="m12.708-16.571-14.925-.062c-.191 0-.375.075-.509.211-.137.136-.211.32-.211.51v5.342c0 .383.298.7.68.717l1.67.091c.112.007.473.081.654.295.535.623.63 1.492.637 1.553 0 .086.143 48.387.143 48.387l-.002 1.016c-.02 1.982-.507 3.264-1.745 4.568-1.174 1.23-2.466 1.803-3.965 1.746-.772-.025-2.408-.395-3.636-1.586-.71-.697-1.423-2.359-1.433-3.354-.01-1.182-.232-49.658-.234-50.149-.012-.555.12-1.559.449-1.992.239-.322.871-.512 1.157-.544l1.537-.168c.363-.041.641-.347.641-.709l.021-5.229c0-.189-.074-.374-.211-.508-.131-.137-.318-.21-.509-.21h-19.59c-.188 0-.371.074-.508.21-.136.134-.208.319-.208.508l.005 5.198c.004.384.308.701.692.715.007 0 .835.037 1.426.15.201.039.622.118 1.25.701.297.275.449.909.449 1.39l.203 51.07h-.569c-.367 0-.672.271-.72.631l-1.175 9.305c-.151 1.078-.582 4.051-.724 4.766-.124.643-.441 1.367-.542 1.604l-.049.117c-.241.578-.704 1.141-1.373 1.684-1.389 1.121-2.902 1.225-2.917 1.225-.004 0-2.329-.031-3.538-.039 0-1.344-.042-25.729-.042-25.729s-.179-43.516-.186-45.207c.03-.149.152-.597.548-.973.227-.213.872-.437 1.223-.5l1.421-.255c.34-.063.592-.356.595-.704l.007-1.444v-3.656c0-.396-.321-.719-.719-.719h-1.726-18.645c-.189 0-.376.075-.509.211-.135.136-.208.317-.208.508l.02 4.91c0 .325.215.606.529.692l1.506.414c.459.121.931.248 1.265.626.395.448.443 1.058.443 1.065v.003c0 .327.178 50.472.178 50.472l.017 7.521-.048 12.281c0 .008.005.15.005.15 0 .584-.137 1.174-.23 1.309-.551.803-1.226.922-1.258.93.005 0-1.469.205-1.469.205-.348.053-.607.342-.618.689l-.052 1.496c0 .021-.02 4.068-.02 4.068 0 .193.075.375.209.512.137.137.319.211.513.211l33.104-.09c.369 0 .679-.285.712-.654l1.295-14.846c.037.025.078.055.113.082l.114.078c.846.598 1.801 1.264 3.661 1.887 1.396.459 3.092.727 4.91.762.939.016 2.594-.117 5.144-.855 1.436-.414 2.838-1.141 4.02-1.801 3.293-1.838 4.991-4.441 6.352-6.533 0-.008.108-.17.108-.17.92-1.414 1.62-3.783 1.966-5.531.398-1.992.467-3.74.467-3.816 0-.012 0-.076 0-.076 0-.061-.107-47.172-.107-48.189.034-.385.225-.931.361-1.036.69-.521 1.597-.774 1.606-.777-.004.001 1.278-.34 1.278-.34.313-.081.533-.367.533-.692l.011-4.931c.001-.392-.32-.716-.718-.718m-.011 5.651-1.285.34c-.009.001-1.037.278-1.848.897-.418.316-.615 1.185-.647 1.56 0 .183.109 48.223.109 48.223l-.002.066c0 .07-.063 1.758-.449 3.695-.32 1.605-1 3.955-1.864 5.277l-.107.17c-1.321 2.027-2.962 4.553-6.101 6.301-1.146.643-2.499 1.346-3.869 1.738-2.465.713-4.042.842-4.932.824-1.744-.031-3.37-.281-4.691-.723-1.759-.588-2.63-1.197-3.475-1.789l-.118-.08c-.127-.092-.281-.209-.456-.336l.107-1.199c.366.303.69.541.929.707l.116.086c.822.57 1.594 1.117 3.212 1.656 1.231.408 2.748.639 4.395.674.819.014 2.288-.109 4.632-.789 1.272-.365 2.562-1.037 3.656-1.648 2.922-1.631 4.488-4.037 5.747-5.971l.109-.168c.737-1.127 1.397-3.289 1.723-4.928.369-1.861.43-3.471.433-3.535l-.111-48.342c0 .025.111-1.566 1.05-2.272.982-.746 2.189-1.068 2.199-1.068.318-.084.54-.372.54-.7v-1.882c0-.396-.32-.717-.716-.719l-11.474-.046c-.19 0-.376.076-.508.211-.137.133-.213.319-.213.508v1.973c0 .392.314.708.704.72.012 0 1.158.043 1.888.9.944 1.103 1.053 2.566 1.053 2.581 0 .43.162 47.15.137 49.51-.02 2.408-.685 4.125-2.222 5.738-1.357 1.428-3.064 2.113-5.231 2.102-1.563-.008-3.466-.813-4.857-2.049-1.335-1.193-1.916-3.648-1.919-4.422l-.234-50.153c0-.036-.047-1.922.796-3.039.798-1.057 2.342-1.217 2.356-1.217.367-.038.651-.345.651-.719v-1.947c0-.396-.317-.717-.718-.717h-16.139c-.397 0-.72.321-.72.717v1.857c0 .373.289.68.658.716.013 0 1.207.121 2.215 1.058 1.122 1.04.94 3.132.938 3.153 0 .022-.001.05-.001.072l.234 50.09c-.003.027-.015.234-.018.559v.719h.735l4.127.012-.744 8.504-.083.92-.108 1.248-.071.869-1.331 15.297-33.106.09.02-4.049.052-1.49 1.475-.219c.039-.004 1.003-.148 1.744-1.232.238-.348.353-1.176.353-1.713 0-.037 0-.072 0-.109v-.037l.046-12.285-.025-7.523s-.17-50.308-.17-50.519c-.005-.006-.05-.842-.625-1.495-.479-.543-1.108-.711-1.614-.847l-1.509-.414-.018-4.906h18.646 1.726v3.652l-.009 1.445-1.42.255c-.347.062-1.195.312-1.591.683-.597.568-.749 1.272-.773 1.422 0 .292.186 45.287.186 45.287s.04 24.002.042 26.436c1.472.016 4.208.043 4.296.045.111-.006 1.775-.129 3.33-1.385.762-.617 1.292-1.277 1.583-1.965 0 0 .025-.064.044-.109.111-.252.45-1.031.591-1.746.143-.742.577-3.746.729-4.816l1.18-9.307h.579l.696.002.012-.723c-.006-1.951-.202-50.97-.202-51.071 0-.606-.186-1.459-.676-1.916-.744-.688-1.29-.82-1.61-.884-.657-.124-1.529-.16-1.529-.16l-.011-5.197h19.591l-.015 5.228-1.542.168c-.315.031-1.223.247-1.657.822-.511.68-.6 1.986-.595 2.43 0 0 .231 48.951.241 50.146.009 1.199.807 3.051 1.649 3.865 1.35 1.314 3.127 1.754 4.111 1.791 1.894.068 3.337-.738 4.506-1.973 1.361-1.434 1.924-2.896 1.942-5.053.005-.156.005-.506.005-1.023 0-7.188-.136-46.725-.144-48.433-.005-.086-.114-1.167-.804-1.974-.43-.505-1.155-.547-1.164-.549l-1.668-.087v-5.339l14.923.061zm-28.947 54.465c-.137-.148-.328-.234-.529-.234l-4.14-.01c.002-.348.013-.561.013-.561l-.233-50.091s.24-2.448-1.164-3.75c-1.219-1.131-2.644-1.247-2.644-1.247v-1.857h16.139v1.95s-1.853.164-2.865 1.506c-1.009 1.339-.94 3.475-.94 3.475s.23 48.841.235 50.149c.005.852.598 3.566 2.158 4.957 1.654 1.473 3.742 2.221 5.335 2.236 1.879.012 3.969-.451 5.756-2.332 1.783-1.877 2.393-3.824 2.417-6.221.023-2.4-.141-49.562-.141-49.562s-.098-1.695-1.219-3.008c-.963-1.127-2.422-1.153-2.422-1.153v-1.971l11.472.046v1.882s-1.335.342-2.451 1.194c-1.224.924-1.338 2.846-1.338 2.846l.114 48.313s-.059 1.598-.42 3.424c-.35 1.75-.991 3.711-1.622 4.676-1.286 1.98-2.754 4.313-5.601 5.906-.996.551-2.272 1.227-3.505 1.584-2.282.662-3.697.771-4.421.756-1.507-.025-2.961-.232-4.18-.631-1.591-.535-2.285-1.049-3.144-1.65-.292-.203-.744-.545-1.261-1.002l.789-9.074c.019-.2-.05-.4-.188-.546z"/><path d="m-49.106-5.858-3.713-3.691s-.195-.158-.284-.459c-.098-.34-.098-.884-.084-1.141l.497.571 2.638.72.849.95z"/><path d="m-32.604-16.377s.223-.215.547-.203c.328.014.635.179.96.46.321.284 3.448 3.365 3.448 3.365l.437.015.352 2.456 1.782.128 1.497.817.412 3.097-.035 6.117s-.729-.536-1.636-.184c-.734.287-1.3 1.13-1.3 1.726v55.183l-.479 3.039-1.47 1.924-2.458 1.313-1.046.129-3.758-.086-.029-7.844-.211-63.636.662-1.017 1.883-.624 1.243-.322v-5.637z"/><path d="m41.909-16.133s.337-.455.63-.447c.464.014.607.322 1.259.952.65.628 3.579 3.503 3.579 3.503h.503l.094 1.372.499.378 2.655.92.419 1.219-3.433 21.974s-4.235-.02-4.376-.02c-.139 0-.341-.081-.479-.22-.14-.14-8.652-8.549-8.652-8.549l.041 12.285-.097 15.203-1.06 2.376-3.135 1.199-3.118-1.418-.758-2.476.061-38.296 1.338-2.339 2.379-.857 2.714 1.238 1.496 3.436.042 8.688.317.343 7.909-.102.12-20.277z"/><path d="m58-1.936c.017-.089.068-.136.137-.136.066 0 .126.062.148.136.024.075 2.52 14.729 2.57 15.006.05.297-.098.687-.505.695-.411.007-3.77-.008-4.121-.008-.347 0-.617-.293-.56-.702.087-.635 2.317-14.901 2.331-14.991z"/><path d="m72.489-16.214s.205-.438.673-.428c.468.014.864.513 1.265.902.402.39 3.893 3.875 3.893 3.875h.45l-.575 2.09-.239 2.599.039 9.829.883 3.834 1.795 2.398 5.393 3.834 5.395 3.475.76.999.041 6.952-1.276 2.039-2.163.64-2.475-1.119-.999-2.317-.081-7.634-.68-.438-.193-.104s-3.579-4.778-3.715-4.974c-.13-.195-.42-.165-.355.152.059.314.987 5.196.987 5.196l-3.16-.106-.197.285.029 7.958-.044 5.84-1.453-.522-1.423-1.437-.853-5.667-1.411-9.346-1.635-9.903-1.809-11.703.416-.718 1.233-.388 2.276.18.267-.51-.087-5.783z"/><path d="m104.018-16.617c.549-.008.696.294.897.524.051.058.127.128.127.128h.287l.099.255.067 4.958.422.359 2.994 1.021.363.51.047 19.106-3.994-.042s-7.667-7.634-7.876-7.816c-.208-.179-.479-.404-.493.109-.018.506 0 3.369 0 3.369l-5.971-3.929-1.205-1.318v-7.435l1.123-1.356 1.517-.521 1.995.321 1.84 1.958.602 2.917-.039 4.314.198.278 6.991.12.52-.241-.201-17.02-.681-.093z"/><path d="m185.7 34.635c.058-.564.42-1.377.501-.057.088 1.318.114 9.063.088 9.627-.026.594-.261 1.135-.674 1.572-.494.521-1.175.594-1.327.594-.278 0-.614-.201-.308-1.941.308-1.742 1.72-9.795 1.72-9.795z"/><path d="m174.814-16.14s.468-.489.872-.485c.568.008.862.478 1.343.967.471.484 4.338 4.23 4.338 4.23h.568l.044.777.306.436 2.692.702.854.992-.029 8.077s-2.579-.013-3.145 0c-.794.014-1.593.914-1.604 1.734-.019.827.04 25.306.04 25.306l-3.112 11.159-1.171 2.102-1.617.658-1.979-.33-.776-.393.029-48.447.839-.993 2.815-1.137-.063-5.364z"/><path d="m-7.493-16.214s0-.435.411-.433c.449 0 .788.455 1.199.866l2.539 2.486h.579l.149 2.841.54.27 2.065.239 1.049 1.468v8.391s-.815-.335-1.416-.063c-.676.308-1.146.953-1.146 1.677v45.396l-1.845 1.113-2.935.023-2.221-1.137-1.705-2.938-.27-52.851.988-1.2 2.73-.3v-5.69z"/><path d="m197.738-16.165s.401-.464.877-.464c.468 0 .744.44 1.26.972.513.529 9.647 9.578 9.647 9.578h.618l-2.316 11.366-2.042 9.832-.221.021-2.471-11.708-2.659-12.285-1.595-7.293z"/><path d="m205.685 68.723c-.21-.131-21.186-12.814-47.693-20.451-21.392-6.162-42.672-9.287-63.245-9.287-14.886 0-33.514.928-58.828 7.809-27.648 7.515-50.465 21.015-50.678 21.138-.159.098-.214.301-.12.459.098.162.304.215.461.125.215-.129 22.954-13.582 50.514-21.072 25.241-6.863 43.809-7.791 58.65-7.791 20.507 0 41.725 3.119 63.064 9.264 26.412 7.609 47.314 20.252 47.522 20.383.16.092.365.043.462-.113.1-.156.049-.367-.109-.464m32.404-68.973c.854-.43 2.269-.444 2.537-.454.513-.02.575-.518.575-.518s.021-4.955 0-5.514c-.015-.56-.136-.641-.299-.798-.158-.161-7.85-7.991-8.231-8.417-.387-.431-.497-.678-1.131-.692-.402-.009-.66.379-.66.379l1.098.221-.029 5.423-2.91.808-.747.871-.182 72.002.332.977 1.422.594 2.2.406.087 5.875-.169.248-20.742.045-.302-.184-.258-.934-.66-.018-2.811-2.863v-4.785s0-.646-.089-.904c-.092-.258-.376-.488-.376-.488l-2.726-2.824s-.61-.68-.733-.912c-.121-.236-.105-.705-.105-.705s.032-2.369.032-2.697c0-.33.299-.273.417-.184.116.092 6.651 6.354 6.651 6.354l4.251.088.115-47.061-.667-.101-8.142 39.07-.471.623-2.114-.047-.42-.566-8.418-39.094-.6.15-.074 35.026.329 2.16 1.352 1.133 2.062.766.019 6.533-.166.373s-12.777-5.949-20.259-8.822c-7.485-2.869-20.835-6.98-20.835-6.98l.014-5.691 2.815-.215.739-.703.042-45.199-.671-.991-3.209-1.346.06-4.642-.602.01s-.165-.25-.415-.54c-.251-.287-.416-.608-.896-.629-.234-.009-.449.279-.449.279l.733.069-.121 5.365-1.798.959-.719 1.287-.15 42.283.689 1.375 2.032 1.076 1.112.363.155 6.201-.545.242-6.796-1.619-12.621-2.875-.029-.693-7.673-7.667s0-8.331 0-8.783c0-.449.302-.537.57-.238.354.394 4.619 4.494 4.619 4.494l4.971-.031 1.17.452-.029-33.409-.747-2.428-2.549-1.379.028 10.758-7.937.059v-5.247l-1.144-1.918-1.524-.418-4.197-.18v13.757h3.147l.924-1.353.307-1.916.324-.331h6.506l.39.239-.089 14.564-.271.36-5.965.15-.66-.238-.474-1.44-.724-1.889-.776-.329h-2.55l.027 15.731 1.26 1.017 1.89.27.629.241.152 5.604-.602.449-18.727-1.857-.15-.361.123-5.182.058-.298 2.246-.361.9-1.137.357-1.078-.199-10.167s-6.762-6.758-7.102-7.13c-.337-.376-.745-.232-.745-.232l2.069 2.747 1.114 3.467.063 9.878-1.115 4.124-2.369 3.043-3.889 2.431-3.801.658-2.93-.238-5.019-1.594.162 1.316-.44.277-6.951.059-.418.061-16.849 2.012-.316-.137-.082-5.619 1.216-.4 1.213-.774.019-.815-1.391-8.544-6.634-.042-1.792 10.854.359.381 2.451-.061.317.257.021 5.237-.319.398-4.361.959-8.246 1.65-.696-.02-.096-.892.081-3.826.376-.936 1.57-1.514.585-1.465.703-3.498 1.026-7.71s-2.689-2.559-3.327-3.229c-.637-.674-.794-.665-1.004-.665-.208 0-.189.374-.189.374l.573.203v7.88l-.206 6.289-.123 2.92-.47 1.572-1.989 3.521-2.826 2.777-6.156 2.827-5.555.186-3.799-.789-3.659-1.895-1.163-1.383-1.962-2.799-.832-2.699-.29-42.742.688-2.599.664-1.493 1.291-1.968s-2.729-2.742-3.028-3.054c-.298-.315-.567-.363-.891-.363s-.399.274-.399.274l.678.202v5.273l-.959.438-2.116.92-.676.829v50.566l-.98 4.145-.904 2.492-1.659 2.633-1.582 2.035-2.334 2.031-2.489 1.586-4.222 1.281-4.294.451-4.447-.752-1.763-.889s.823-10.846.842-11.246c.015-.404-.107-.521-.17-.596-.064-.066-1.011-1.006-1.19-1.205-.18-.199-.504-.584-.871-.584-.371 0-.366.342-.366.342l.711.383-2.153 26.672-.482.477-33.122.158-.381-.635s-.351-.035-.351.285c0 .311.149.523.42.789.268.271 8.686 8.629 8.686 8.629s33.332-.002 33.448-.002c.18 0 .279-.209.321-.533.043-.33.273-2.43.302-2.76s.208-.627.509-.809c.301-.178 5.781-3.057 6.139-3.264.363-.209.9-.15 1.082 0 .18.148 4.072 4.135 4.942 4.943.867.809 1.918 2.486 4.107 2.461.958-.02 2.035-.412 2.608-1.025.725-.781.805-1.828.805-1.828l49.322-.023s2.967 3.232 8.272 3.082c5.301-.148 7.969-2.994 7.969-2.994l2.818 2.545 16.152-.061s.237-.209.359-.598c.121-.393.211-1.859.211-1.859s1.065 1.23 2.787 1.98c1.145.498 2.773.615 3.861.625 1.299.018 2.857-.186 3.662-.834.825-.678.987-1.35.923-1.887l2.813 2.633s17.146.057 17.597.031c.449-.031.474-.42.474-.42l.092-2.244s1.209 1.184 3.235 2.004c1.594.65 3.907.973 5.095.99 1.263.012 3.518-.492 5.001-1.197 1.692-.807 2.55-1.83 2.55-1.83l50.313-.063s.673 1.139 1.734 1.893c.655.463 1.606.678 2.188.691.607.01 1.315-.229 1.891-.691.873-.705 1.256-1.74 1.256-1.74s9.681.039 10.761 0c1.527-.057 2.245-.482 2.363-1.648.029-.305.513-.123.387-.238-.113-.121 4.501 4.346 4.501 4.346s21.212-.061 21.544-.061c.326 0 .536-.42.536-.752 0-.324-.029-4.941-.058-5.662-.029-.717-.332-.926-.539-1.135-.213-.211-1.648-1.711-2.516-2.609-.873-.9-.979-1.986-.979-1.986v-66.538c.021-.479.255-1.181 1.07-1.589m-220.588 47.459c.408-1.764.769-3.893.769-3.893l5.247 5.342-7.102 2.492s.681-2.173 1.086-3.941m42.357 24.926c-3.221 0-6.085-1.523-7.931-3.889-5.353-.008-52.95-.049-52.95-.053-.542 0-1.014.486-1.021 1.041-.007.557.487 1.055 1.076 1.072.312 0 .57-.199.781-.396.219-.211.922-.646 1.41-.219.395.414.237.99-.203 1.471-.335.363-1.207.865-1.988.857-1.323-.008-2.781-.943-2.806-2.793-.018-1.533 1.378-2.729 2.384-2.768l54.562.059c1.449 2.166 3.897 3.59 6.686 3.59 4.454 0 8.067-3.633 8.067-8.107s-3.614-8.104-8.067-8.104c-2.709 0-5.098 1.344-6.564 3.406-.813.002-17.198.059-17.228.059-.822.023-2.724-.721-2.736-2.811-.01-1.762 1.542-2.789 2.711-2.77 1.071.021 1.872.461 2.251 1.061.257.402.357 1.059-.038 1.367-.372.289-.95.232-1.233-.15-.154-.205-.494-.545-.911-.572-.526.025-1.111.342-1.113 1.076-.007.678.643 1.061 1.05 1.066l16.021-.063c1.852-2.258 4.651-3.703 7.788-3.703 5.57 0 10.084 4.541 10.084 10.137s-4.512 10.136-10.082 10.136m-1.855-11.084c.313-.699 1.013-1.193 1.834-1.193 1.111 0 2.011.912 2.011 2.027 0 1.121-.9 2.025-2.011 2.025-.797 0-1.474-.463-1.801-1.135l-47.89-.063c-.473 0-.854-.385-.854-.859 0-.479.384-.863.857-.859zm28.327 10.027c-.009.121-.112.213-.234.213l-13.313-.016c-.127 0-.233-.104-.237-.232l-.058-1.594c0-.09.067-.18.146-.225l.727-.395c.225-.148.5-.398.614-.545.061-.088.278-.395.389-.762.124-.416.147-.844.147-.844s-.067-16.033-.067-16.305c0-.004-.117-1.133-.117-1.143-.087-.459-.252-.916-.341-1.074-.048-.08-.23-.365-.572-.586l-.79-.385c-.082-.037-.153-.135-.153-.223l.015-1.699c.002-.125.098-.227.219-.236l8.762-.717c.068-.008.133.018.184.063.046.043.078.105.078.174 0 0 .028 1.848.028 1.85 0 .1-.064.193-.163.227-.499.168-.868.371-1 .555 0 0-.078.104-.082.107-.114.141-.265.334-.33.545-.088.268-.103.549-.103.695v.025c.001.014.011.021.011.033v.031.01c-.015.129-.02 1.094-.02 2.52 0 4.928.059 15.318.059 15.41l.013.084c.032.352.089.938.266 1.318.192.422.527.611.702.611.23 0 .924-.219 1.471-.852.31-.355.615-.963.921-1.801.085-.24.376-1.086.575-1.971l.394-2.148c.021-.115.124-.207.242-.205l2.346.061c.068.004.129.029.171.08.046.051.068.117.059.182zm11.775-.574c-.236.225-.44.365-.89.535 0 0-.982.289-.994.295 0 0-.2.049-.235.055 0 0-.812.096-.841.102 0 0-2.536-.006-2.555-.006-.074-.002-.715-.051-1.337-.291-.695-.266-1.266-.732-1.472-.945-.215-.221-.683-.814-.911-1.465-.271-.754-.308-1.549-.312-1.645 0 0 0-11.529 0-11.543l.004-.123c0-.244-.044-.387-.092-.441-.089-.102-.345-.129-.496-.115h-2.334c-.064 0-.124-.029-.171-.074-.041-.045-.07-.105-.07-.17l.015-2.43c0-.131.109-.236.241-.236h2.442c.168.012.329-.016.384-.064.047-.043.081-.164.079-.338v-3.111c0-.109.076-.205.179-.232l5.009-1.313c.071-.02.15-.004.208.039.059.047.094.117.094.193v4.377c0 .133.032.297.101.361.036.029.212.08.569.051h3.08c.129 0 .233.135.238.266l.006.105-.074 1.139c-.076.648-.221 1.109-.297 1.33-.035.094-.121.154-.228.154 0 0-2.397.008-2.664.008-.042.01-.075.031-.118.014 0 0-.029-.008-.059-.021-.098-.004-.334.041-.407.104-.095.074-.102.264-.095.336v.271c-.012 6.221-.012 9.939 0 10.461.006.373.078 1.301.59 1.803.475.467 1.39.488 1.565.488.282 0 .744-.025 1.131-.109l.699-.236c.072-.023.166-.016.23.025.064.049.109.113.109.191l.022 1.656c-.001.102-.057.285-.343.549m18.655.582c0 .135-.107.24-.239.24h-6.377c-.188 0-.574-.072-.859-.33-.353-.314-.593-.793-.642-.889h-.226c-.156.127-.873.688-1.443.959-.551.256-1.356.381-1.636.422l-.619.002-1.18.008c-.779-.021-2.039-.508-2.932-1.402-.979-.973-1.043-2.33-1.043-2.344 0 0-.011-11.115-.011-11.109 0-.025-.002-2.453 1.572-3.801 1.259-1.08 3.609-1.32 3.987-1.32.314 0 1.193.078 1.908.32.458.15.852.361 1.089.498 0 0 .277.125.336.148.099.004.21-.031.269-.113.064-.094.102-.273.107-.395 0 0 0-2.752 0-2.771-.009.016-.027.01-.032.025 0 0 .014-.033.027-.064 0-.027.005-.059.005-.059 0-.213-.077-.564-.18-.795-.196-.43-.634-.873-.718-.957-.148-.137-.523-.473-.933-.629-.22-.086-.489-.141-.766-.16-.124-.013-.224-.111-.224-.24v-1.832c0-.063.028-.123.07-.172.048-.041.104-.066.169-.066l2.921.018c2.099.043 4.297.387 4.926.494.116.02.197.119.197.238 0 .207.018 21.34.042 21.992 0 .012.032 1.164.67 1.656.483.373 1.232.434 1.53.439.128.006.234.113.234.242v1.747m72.905.934c-.778.008-1.65-.494-1.99-.857-.434-.48-.593-1.055-.194-1.471.486-.428 1.188.008 1.406.219.211.195.469.396.781.396.589-.018 1.086-.516 1.075-1.072-.008-.555-.476-1.041-1.02-1.041 0 .004-47.597.045-52.952.053-1.843 2.365-4.701 3.889-7.929 3.889-5.568 0-10.082-4.537-10.082-10.135 0-5.594 4.514-10.137 10.082-10.137 3.139 0 5.943 1.445 7.789 3.703l16.991.064c.405-.008 1.051-.389 1.051-1.068-.008-.734-.597-1.049-1.116-1.076-.421.025-.755.365-.91.574-.284.381-.862.439-1.233.148-.395-.309-.296-.965-.041-1.367.379-.6 1.18-1.043 2.25-1.061 1.175-.02 2.723 1.008 2.712 2.77-.012 2.09-1.908 2.836-2.73 2.811-.04 0-17.386-.057-18.2-.059-1.462-2.063-3.849-3.406-6.562-3.406-4.459 0-8.069 3.629-8.069 8.104s3.61 8.107 8.069 8.107c2.789 0 5.242-1.424 6.688-3.59l54.562-.059c1.006.039 2.402 1.234 2.379 2.768-.023 1.849-1.477 2.785-2.807 2.793m-11.085-11.026c.476-.004.861.381.861.859 0 .475-.386.859-.857.859l-47.938.063c-.328.672-1.01 1.135-1.803 1.135-1.112 0-2.017-.904-2.017-2.025 0-1.117.904-2.027 2.017-2.027.818 0 1.52.494 1.835 1.193zm28.1 8.733c-.395.643-1.241.846-1.883.453-.21-.125-20.887-12.668-47.275-20.27-21.241-6.119-42.364-9.221-62.774-9.221-14.775 0-33.263.918-58.381 7.748-26.944 7.326-49.311 20.41-50.256 20.971 0 0-.631.244-1.042.143-.548-.1-.836-.631-.836-.631-.384-.65-.165-1.492.491-1.881.952-.564 23.618-13.822 50.922-21.246 25.437-6.914 44.146-7.846 59.102-7.846 20.671 0 42.046 3.141 63.54 9.332 26.725 7.695 47.725 20.436 47.938 20.561.648.394.848 1.242.454 1.887m-99.891-15.237c-1.669 0-1.951 1.57-1.951 1.98 0 .275.026 8.842.021 9.375-.013.854.764 1.854 2.072 1.854 1.273 0 1.973-1.168 1.986-1.844.011-.504.015-9.307 0-9.535-.024-.328-.299-1.83-2.128-1.83z"/></svg>