<svg height="71" viewBox="0 0 164 71" width="164" xmlns="http://www.w3.org/2000/svg"><g fill="none" fill-rule="evenodd"><g fill-rule="nonzero"><g><path d="m34.5147483 43.1777778c-1.6533878.8977778-3.4752381 1.56-5.4644354 2.0333333-1.9891973.4722222-4.0988843.6844445-6.3279456.6844445-6.831102 0-12.2955374-2.08-16.39442172-6.2422223-4.09888436-4.1611111-6.16059864-9.7177777-6.16059864-16.67 0-3.8066666.62364626-7.1888889 1.86982313-10.1911111 1.24617687-3.00333331 3.11711564-5.55666664 5.60835374-7.68444442 1.97900422-1.70087187 4.27634799-2.99497865 6.75970069-3.80777778 2.5168979-.85111111 5.2970884-1.27666667 8.3171428-1.27666667 6.8076735 0 12.2721089 2.08111111 16.3944218 6.26666667 4.1234286 4.1844444 6.1605987 9.7422222 6.1605987 16.6933333 0 2.9088889-.3358096 5.5333334-1.0308572 7.8977778-.6659162 2.3026622-1.7458804 4.4658573-3.1874013 6.3844445 1.2941496 1.1111111 2.6842448 1.9855555 4.1948299 2.6477777 1.5094694.6622223 3.1394286 1.0644445 4.8887619 1.2533334l-3.3313197 7.8266666c-2.516898-.2366666-4.8184762-.8511111-6.8790749-1.8444444-2.0509536-.9557333-3.8920739-2.305661-5.4175782-3.9722222zm-11.792381-6.4555556c3.5477551 0 6.3034014-1.2066666 8.2691701-3.6188889 1.9891973-2.4111111 2.9720816-5.7688889 2.9720816-10.0966666 0-4.3266667-1.0063129-7.7077778-2.9955102-10.12-1.9903129-2.4588889-4.7459591-3.66444448-8.2446258-3.66444448-3.500898 0-6.2331157 1.22888888-8.2468571 3.68888888-2.0126259 2.4344445-3.0200545 5.8166667-3.0200545 10.0955556 0 4.28 1.0074286 7.6377777 2.9966259 10.0733333s4.7459592 3.6411111 8.26917 3.6411111z" fill="#1c8143"/><path d="m90.9619864 34.7822222c-2.1331157 3.7366667-4.8184762 6.5266667-8.0058776 8.3944445-3.2119455 1.8677777-6.9270476 2.79-11.1932789 2.79-6.7117279 0-12.0322449-2.08-15.9637823-6.2188889-3.954966-4.1377778-5.9441632-9.7177778-5.9441632-16.7411111 0-6.88 2.0617142-12.4366667 6.1840272-16.64555559 4.1223129-4.20888889 9.5387755-6.31333333 16.2505034-6.31333333 4.2193741 0 7.8865034.94444444 11.0025034 2.83666666 3.116 1.89222223 5.5369523 4.63444445 7.2628571 8.22888886l-8.6049796 4.2555556c-1.0074286-2.1033333-2.3250068-3.6888889-3.9795102-4.7755556-1.6533877-1.08777774-3.570068-1.63111108-5.7522721-1.63111108-3.4027211 0-6.0880816 1.25222218-8.0772789 3.73555558-1.9891973 2.4822222-2.9720816 5.9111111-2.9720816 10.2855555 0 4.3977778.9817687 7.8266667 2.9475374 10.2622223 1.9657687 2.4355555 4.6979864 3.6411111 8.2446258 3.6411111 2.2301769 0 4.1479728-.52 5.777932-1.5366667 1.6288435-1.04 2.9955102-2.5777778 4.0743401-4.6577778zm19.6297956 11.1133334c-5.343945 0-9.659265-1.5833334-12.9191834-4.7522223-3.2599183-3.1688889-4.8887619-7.3533333-4.8887619-12.58 0-5.1777777 1.6288436-9.3866666 4.9133062-12.5788889 3.2833471-3.1922222 7.5741221-4.7766666 12.9191841-4.7766666 5.393034 0 9.730666 1.5844444 12.990585 4.7766666 3.259918 3.1922223 4.889877 7.3777778 4.889877 12.5788889 0 5.2022223-1.653388 9.3877778-4.93785 12.5555556-3.283347 3.1933333-7.597551 4.7777778-12.967157 4.7777778zm-7.597551-17.3322223c0 2.98.695048 5.3211111 2.060599 7.0711111 1.391211 1.7488889 3.235374 2.6244445 5.536952 2.6244445 2.325007 0 4.171402-.8755556 5.561497-2.6244445 1.390095-1.75 2.085143-4.1144444 2.085143-7.0711111 0-2.9555555-.695048-5.32-2.061715-7.0933333-1.390095-1.75-3.235374-2.6244444-5.56038-2.6244444-2.301579 0-4.123429.8988888-5.513524 2.6722222-1.413524 1.7733333-2.108572 4.1377778-2.108572 7.0455555zm29.865851 16.2688889v-32.56h9.993959v3.0266667c1.294149-1.2777778 2.733333-2.2222222 4.338748-2.8377778 1.606531-.6144444 3.427265-.9455555 5.441007-.9455555 3.594612 0 6.279973 1.1111111 8.029306 3.3577777 1.749333 2.2455556 2.636272 5.6744445 2.636272 10.3088889v19.6511111h-9.995075v-19.1777777c0-2.1977778-.383782-3.8055556-1.174775-4.8466667-.789878-1.04-2.03717-1.5366667-3.738531-1.5366667-2.013741 0-3.427265.4733334-4.290775 1.4422222-.862395.97-1.269606 2.6011112-1.269606 4.9422223v19.1766666h-9.971646z" fill="#2b6cad"/><path d="m163.27483 24.2844444c-3.379293.1888889-6.710612.3544445-9.993959.52.023428.2833334.023428.5666667.023428.8744445v19.1777778h9.996191v-19.6511111c0-.3311112-.024544-.6388889-.024544-.9222223z" fill="#2366a9" opacity=".1"/><path d="m132.858966 44.8322222h9.99619v-19.1777778-.4244444c-3.380408.1177778-6.712843.2366667-9.99619.3311111zm-14.83698-18.9166666c.145034.8277777.216436 1.7022222.216436 2.6722222 0 2.9555555-.695048 5.2966666-2.086259 7.07-1.388979 1.75-3.235374 2.6244444-5.560381 2.6244444-2.300462 0-4.145741-.8744444-5.536952-2.6244444-1.390095-1.75-2.060599-4.1144445-2.060599-7.07 0-.9222222.071402-1.7733334.21532-2.5777778-3.4272653 0-6.831102-.0233333-10.2583673-.0466667-.0959456.8511111-.167347 1.7022223-.167347 2.6244445 0 5.2022222 1.6288436 9.4111111 4.8887619 12.5788889 3.2599184 3.1688889 7.5752384 4.7533333 12.9191834 4.7533333 5.345062 0 9.659266-1.5844444 12.967157-4.7766667 3.284462-3.1922222 4.93785-7.3533333 4.93785-12.5555555 0-.9933334-.071401-1.9388889-.191891-2.8611111-3.475238.0711111-6.879075.1177777-10.282912.1888889zm-39.9066663 9.4344444c-1.6310748 1.04-3.5477551 1.5366667-5.7779319 1.5366667-3.5232109 0-6.2788572-1.2055556-8.2446259-3.6411111-1.6065306-2.01-2.5403265-4.6822223-2.8281633-8.0155556-3.7798596-.120035-7.5589888-.2618893-11.3371972-.4255556.3112653 6.1711112 2.2536054 11.16 5.8482176 14.92 3.954966 4.1377778 9.275483 6.2188889 15.9626667 6.2188889 4.267347 0 7.982449-.9222222 11.1932789-2.79 3.2130613-1.8677777 5.8727619-4.6577777 8.0058776-8.3944444l-8.7723266-4.0911111c-1.0542857 2.1044444-2.4209523 3.6655555-4.0497959 4.6822222z" fill="#2366a9"/><path d="m22.7223673 45.8955556c2.2290613 0 4.3387483-.2355556 6.3279456-.6855556 1.9891973-.4722222 3.8110476-1.1344444 5.4644354-2.0333333 1.5255043 1.6665612 3.3666246 3.0164889 5.4175782 3.9722222 2.0605987.97 4.3621769 1.5844444 6.8790749 1.8444444l3.3313197-7.8266666c-1.7259048-.1888889-3.355864-.5911111-4.8898776-1.2533334-1.5263333-.6631385-2.9411556-1.5561747-4.1948299-2.6477777 1.4391837-1.8922223 2.4934694-4.02 3.188517-6.3844445.5511293-1.8911111.8623946-3.9955555.9817687-6.2666667-3.7635796-.1447435-7.5263385-.3099312-11.2881088-.4955555-.167347 3.7833333-1.151347 6.7622222-2.9486531 8.9611111-1.9891973 2.4111111-4.7459592 3.6177778-8.2691701 3.6177778-3.5232108 0-6.2799727-1.2055556-8.26917-3.6411111-1.9891973-2.4111111-2.9720817-5.7455556-2.9966259-10.0022223-3.69055779-.1888888-7.45363262-.3777777-11.28922446-.5666666v.4955555c0 6.9522223 2.06171428 12.5088889 6.16059864 16.67 4.09888432 4.1622223 9.56331972 6.2422223 16.39442172 6.2422223z" fill="#fff" opacity=".1"/></g><path d="m96.311875 69.4205714c-.61875 0-1.137375-.2937143-1.402875-.7965714h-.06525v.72h-.84375v-6.344h.8775v2.5062857h.068625c.23625-.4994286.75825-.8 1.36575-.8 1.125 0 1.834875.904 1.834875 2.3542857 0 1.4457143-.71325 2.36-1.83375 2.36zm-.252-3.9062857c-.734625 0-1.195875.5942857-1.19925 1.5508572.003375.9554285.46125 1.5462857 1.19925 1.5462857.7425 0 1.18575-.5828572 1.18575-1.5508572 0-.96-.444375-1.5462857-1.18575-1.5462857zm3.57975 5.4857143c.905625 0 1.32525-.3565714 1.704375-1.4662857l1.656-4.7531429h-.92925l-1.10925 3.6251429h-.06975l-1.11375-3.6251429h-.954l1.6065 4.5805715-.06525.2228571c-.15075.4605714-.387.6365714-.80325.6365714-.081 0-.216-.0045714-.284625-.0171428v.776c.081.0114285.289125.0205714.36225.0205714z" fill="#292952"/><g transform="translate(110 55)"><path d="m3.366 14.501h-3.366v-14.251h3.366z" fill="#2b6cad"/><path d="m5.52888889 14.5005714v-10.50628569h3.07555555v.976c.37878949-.39986294.83646617-.71162 1.34222223-.91428571.49444443-.19885714 1.05555553-.30628571 1.67444443-.30628571 1.1066667 0 1.9333333.35885714 2.4711111 1.08342857.5388889.72457143.8111111 1.83085714.8111111 3.32571428v6.34057146h-3.0755555v-6.18628574c0-.70857143-.1177778-1.22742857-.3611111-1.56342857-.2444445-.336-.6266667-.496-1.1511111-.496-.61888893 0-1.05444449.152-1.32000004.46514285-.25777778.31314286-.39111112.83885715-.39111112 1.59428572v6.18857144h-3.07555555zm11.64777781 0v-8.3965714h-1.5511111v-1.93714286h1.5511111c-.0222223-.216-.03-.37714285-.0366667-.46971428 0-.10057143-.0077778-.18514286-.0077778-.26971429 0-1.12342857.2633334-1.93142857.7833334-2.43085714.5188888-.49257143 1.3755555-.74628572 2.5611111-.74628572.2633333 0 .5266666.01485715.7977777.04571429.27.03085714.5477778.08457143.8411112.16228571v2.216h-.5122223c-.5633333 0-.9288889.06857143-1.1122222.21485715-.1833333.14628571-.2711111.43085714-.2711111.86857143v.40914285h1.8955556v1.93828572h-1.8888889v8.39542854h-3.0488889zm10.4555555.7497143c-1.6555555 0-2.9922222-.5257143-4.0022222-1.576-1.01-1.0514286-1.5144444-2.4377143-1.5144444-4.17142856 0-1.71542857.5044444-3.11085714 1.5222222-4.16914285 1.01-1.05142858 2.3466666-1.584 3.9955555-1.584 1.6711111 0 3.0144445.52571428 4.0244445 1.584 1.0111111 1.05828571 1.5155555 2.44571428 1.5155555 4.17028571 0 1.7165714-.5122222 3.104-1.53 4.1622857-1.01 1.0582857-2.3466666 1.584-4.0111111 1.584zm-2.3533333-5.7462857c0 .9874286.2155555 1.7634286.6388889 2.3428571.4311111.5805715 1.0022222.8708572 1.7155555.8708572.7122223 0 1.2922223-.2902857 1.7222223-.8697143.4311111-.5805714.6466666-1.3645714.6466666-2.336 0-.98742857-.2155555-1.76457143-.6388889-2.352-.4311111-.58057143-1.0022222-.86971429-1.7222222-.86971429-.7133333 0-1.2777778.29714286-1.7088889.88571429-.4377778.57942857-.6533333 1.36342857-.6533333 2.328z" fill="#2b6cad"/><path d="m45.1966667 14.0994286c-.5289029.2987048-1.0948233.5220826-1.6822223.664-.638148.1549078-1.2921258.2301171-1.9477777.224-2.1033334 0-3.7855556-.6788572-5.0555556-2.0388572-1.2611111-1.36-1.8955555-3.17599997-1.8955555-5.44685711 0-1.24342858.1922222-2.34857143.5755555-3.33028572.3740252-.96583911.965838-1.82643211 1.7266667-2.51085714.6058853-.55344697 1.313548-.97626344 2.0811111-1.24342857.7744444-.27771429 1.63-.41714286 2.56-.41714286 2.0955555 0 3.7777778.68 5.0466667 2.04685714 1.2688888 1.368 1.8966666 3.184 1.8966666 5.45485715 0 .94971428-.1033333 1.808-.3177778 2.58057141-.203797.7497372-.5360426 1.4560481-.9811111 2.0857143.3988889.3634286.8266667.6491429 1.2911111.8651429.4655556.2171428.9666667.3474285 1.5055556.4091428l-1.0255556 2.5577143c-.7358343-.0656367-1.4536795-.2697884-2.1177777-.6022857-.6318386-.3147894-1.1962054-.7561806-1.66-1.2982857zm-3.6377778-2.1085715c1.0922222 0 1.94-.3942857 2.5455555-1.1828571.6122223-.7885714.9144445-1.88571429.9144445-3.29828571 0-1.41371429-.3088889-2.51885715-.9222222-3.30742858-.6111111-.79542857-1.4611111-1.18857142-2.5444445-1.18857142-1.0777778 0-1.9188889.4-2.5388889 1.20457142-.62.80342858-.9222222 1.90057143-.9222222 3.29828572 0 1.39885714.31 2.49599997.9222222 3.29142857.62.7885714 1.4677778 1.1828571 2.5444445 1.1828571z" fill="#228d45"/></g></g><path d="m10.609233 67.2371065h-6.4988489v-11.9859344h-3.1103841v14.4976558h9.609233zm7.9304495-12.2371065c4.3977948 0 7.1683025 2.8834561 7.1683025 7.5050234 0 4.6115205-2.7705077 7.4949766-7.1683025 7.4949766-4.408094 0-7.1683024-2.8834561-7.1683024-7.4949766 0-4.6215673 2.7602084-7.5050234 7.1683024-7.5050234zm0 2.5318151c-2.4306312 0-3.9961226 1.929002-3.9961226 4.9732083 0 3.0341595 1.5551921 4.9531146 3.9961226 4.9531146 2.4306313 0 3.9858234-1.9189551 3.9858234-4.9531146 0-3.0442063-1.5551921-4.9732083-3.9858234-4.9732083zm12.1428572 12.2170128v-9.4943068h.0926935l6.9520175 9.4943068h2.5748213v-14.4976558h-2.9764934v9.4440724h-.0823943l-6.9417182-9.4440724h-2.5954198v14.4976558zm12.0913607-14.4976558h5.6749061c4.4595904 0 7.0859081 2.5920965 7.0859081 7.19357 0 4.6014736-2.6263177 7.3040858-7.0859081 7.3040858h-5.6749061zm3.1103841 2.5016745v9.4842599h2.1937477c2.780807 0 4.2845026-1.6476892 4.2845026-4.7823175 0-3.0341594-1.5448927-4.7019424-4.2845026-4.7019424zm18.3533261-2.7528466c4.3977947 0 7.1683024 2.8834561 7.1683024 7.5050234 0 4.6115205-2.7705077 7.4949766-7.1683024 7.4949766-4.4080941 0-7.1683025-2.8834561-7.1683025-7.4949766 0-4.6215673 2.7602084-7.5050234 7.1683025-7.5050234zm0 2.5318151c-2.4306313 0-3.9961227 1.929002-3.9961227 4.9732083 0 3.0341595 1.5551921 4.9531146 3.9961227 4.9531146 2.4306313 0 3.9858233-1.9189551 3.9858233-4.9531146 0-3.0442063-1.555192-4.9732083-3.9858233-4.9732083zm12.1428571 12.2170128v-9.4943068h.0926936l6.9520174 9.4943068h2.5748213v-14.4976558h-2.9764934v9.4440724h-.0823943l-6.9417181-9.4440724h-2.5954199v14.4976558z" fill="#338d56"/></g></svg>