<?xml version="1.0" encoding="utf-8"?>
<!-- Generator: Adobe Illustrator 14.0.0, SVG Export Plug-In . SVG Version: 6.00 Build 43363)  -->
<!DOCTYPE svg PUBLIC "-//W3C//DTD SVG 1.1//EN" "http://www.w3.org/Graphics/SVG/1.1/DTD/svg11.dtd">
<svg version="1.1" id="Layer_1" xmlns="http://www.w3.org/2000/svg" xmlns:xlink="http://www.w3.org/1999/xlink" x="0px" y="0px"
	 width="300px" height="105px" viewBox="-56 -21 300 105" enable-background="new -56 -21 300 105" xml:space="preserve">
<polygon points="-36.688,64.73 -36.688,64.742 -36.688,64.773 "/>
<path d="M-36.859,65.861c-0.025,0.002-0.049,0.002-0.072,0.002C-36.904,65.863-36.874,65.863-36.859,65.861z"/>
<path d="M-50.763-14.872c-0.192,0-0.372,0.075-0.507,0.212c-0.133,0.134-0.208,0.317-0.208,0.509c0,0.001,0.006,1.866,0.006,1.866
	c0,0.326,0.204,0.603,0.512,0.688l0.25,0.067c0.572,0.152,1.434,0.38,2.113,1.153c0.828,0.939,0.872,2.112,0.872,2.124l0.176,50.547
	l0.026,7.529l-0.05,12.256c0,0.043,0.003,0.094,0.003,0.148c0,0.551-0.091,1.676-0.531,2.313c-1.025,1.486-2.392,1.654-2.452,1.664
	c-0.362,0.039-0.64,0.346-0.64,0.713l-0.011,2.313c0,0.191,0.073,0.369,0.205,0.504c0.138,0.139,0.324,0.215,0.516,0.215
	l29.783-0.082c0.372,0,0.684-0.285,0.714-0.656l2.045-23.396c0.015-0.199-0.054-0.4-0.191-0.545
	c-0.132-0.15-0.326-0.232-0.529-0.234l-3.754-0.006c-0.361,0-0.664,0.266-0.716,0.627l-0.983,7.795
	c-0.004,0.031-0.563,3.961-0.743,4.879c-0.162,0.828-0.528,1.684-0.65,1.967c-0.021,0.039-0.044,0.09-0.044,0.09
	c-0.354,0.842-0.983,1.637-1.875,2.359c-1.888,1.525-3.922,1.605-3.945,1.607c0,0-4.283-0.049-5.32-0.057
	c0-0.676-0.045-27.428-0.045-27.428s-0.185-45.266-0.185-45.375c0.009-0.074,0.168-1.192,1.092-2.065
	c0.744-0.706,2.093-0.945,2.104-0.945c0.348-0.063,0.598-0.361,0.598-0.71v-1.924c0-0.397-0.319-0.72-0.718-0.72L-50.763-14.872
	 M-48.059-10.851c-0.943-1.072-2.165-1.278-2.692-1.437l-0.012-1.863h16.916v1.924c0,0-1.559,0.262-2.479,1.13
	C-37.5-9.985-37.643-8.56-37.643-8.56s0.184,44.906,0.187,45.437c0.005,0.527,0.044,27.766,0.044,27.766s0.024,0.24,0.117,0.297
	c0.15,0.09,0.367,0.072,0.367,0.072l5.577,0.059c0,0,2.259-0.057,4.372-1.768c1.569-1.268,2.002-2.436,2.111-2.686
	c0.107-0.252,0.533-1.201,0.72-2.152c0.181-0.945,0.746-4.922,0.746-4.922l0.987-7.799l3.75,0.008l-2.037,23.396l-29.788,0.078
	l0.012-2.307c0,0,1.724-0.158,2.969-1.975c0.729-1.061,0.656-2.863,0.656-2.863s0.046-11.23,0.047-12.258
	c0-1.023-0.021-7.529-0.021-7.529L-47.005-8.27C-47.005-8.27-47.03-9.686-48.059-10.851z"/>
<path d="M21.206-14.531c-1.774,0.759-3.925,2.675-4.767,4.261c-0.923,1.738-0.994,3.319-0.994,3.388
	c0,0.009,0.246,40.64,0.246,40.64c0,0.066-0.039,2.152,0.773,4.143c0.655,1.609,2.07,2.969,2.858,3.631
	c1.019,0.865,2.891,1.656,4.761,2.018c1.738,0.334,3.119,0.305,3.633,0.295l0.142-0.004l0.063,0.004
	c2.208,0.018,3.783-0.35,4.715-0.66c1.791-0.588,3.6-1.719,5.372-3.348c1.067-0.975,2.422-2.789,3.055-4.629
	c0.703-2.072,0.625-4.175,0.62-4.267V19.24c0-0.395-0.324-0.718-0.72-0.718h-4.33c-0.189,0-0.372,0.075-0.51,0.212
	c-0.132,0.136-0.208,0.319-0.208,0.509l0.029,12c0,0.012,0.003,1.112-0.3,2.15c-0.259,0.893-0.812,1.695-1.099,1.994
	c-0.477,0.488-1.266,1.119-2.045,1.412c-1.061,0.398-2.26,0.418-2.27,0.418c-0.045,0.004-0.803,0.043-1.599-0.215
	c-0.629-0.211-1.363-0.707-1.762-1.094c-0.433-0.424-1.025-1.219-1.315-1.928c-0.342-0.836-0.38-1.651-0.387-1.661L25.081-5.057
	c0-1.868,0.646-3.387,1.867-4.393c0.776-0.642,3.581-2.041,6.187-0.128c2.525,1.85,2.704,5.788,2.707,5.827v6.088
	c0,0.398,0.321,0.72,0.719,0.72h4.29c0.192,0,0.376-0.079,0.508-0.211c0.138-0.134,0.212-0.321,0.212-0.511L41.531-14.14
	c0-0.396-0.321-0.717-0.723-0.717h-4.4c-0.396,0-0.714,0.322-0.714,0.72c0,0,0,0.459,0,0.83c-0.437-0.241-1.406-0.769-2.634-1.246
	c-1.669-0.652-3.538-1.11-5.129-1.26C24.539-16.135,21.339-14.596,21.206-14.531 M16.165-6.859c0,0,0.055-1.458,0.91-3.076
	c0.783-1.476,2.849-3.266,4.445-3.95c0,0,3.118-1.52,6.343-1.216c1.616,0.152,3.453,0.638,4.938,1.216
	c1.487,0.579,2.623,1.255,2.772,1.332c0.149,0.074,0.477,0.174,0.648,0.075c0.177-0.106,0.185-0.418,0.185-0.418v-1.243h4.406
	l0.041,16.473h-4.291v-6.114c0,0-0.154-4.292-3.002-6.382c-2.849-2.089-6.006-0.724-7.067,0.155
	c-1.439,1.188-2.125,2.934-2.125,4.949c0,2.013,0.089,37.41,0.089,37.41s0.035,0.929,0.435,1.899
	c0.349,0.857,1.028,1.736,1.483,2.174c0.437,0.422,1.259,1,2.037,1.258c0.947,0.313,1.827,0.256,1.827,0.256
	s1.314-0.016,2.516-0.463c1.016-0.383,1.902-1.174,2.309-1.594c0.402-0.414,0.989-1.324,1.271-2.289
	c0.338-1.155,0.332-2.354,0.332-2.354l-0.033-12.001h4.33v11.729c0,0,0.088,2.039-0.581,4.006c-0.612,1.793-1.94,3.49-2.857,4.33
	c-1.005,0.92-2.865,2.453-5.112,3.199c-2.053,0.678-4.238,0.617-4.555,0.617c-0.321,0-1.757,0.082-3.637-0.279
	c-1.699-0.326-3.484-1.053-4.434-1.857c-0.857-0.723-2.09-1.963-2.66-3.357c-0.763-1.873-0.719-3.875-0.719-3.875L16.165-6.859z"/>
<path d="M20.489-16.101c-0.011,0.007-0.026,0.012-0.026,0.012l0,0c0,0.001-0.014,0.007-0.016,0.007c0,0.003-0.004,0.008-0.004,0.008
	c-2.157,0.961-4.516,3.086-5.531,4.995c-1.082,2.048-1.183,3.922-1.189,4.132c-0.005,0.009-0.005,0.067-0.005,0.067l0.25,40.648
	c0,0-0.004,0.025-0.004,0.078c0,0.436,0.046,2.611,0.9,4.707c0.798,1.949,2.434,3.529,3.344,4.301
	c1.492,1.258,3.847,2.063,5.553,2.387c1.92,0.375,3.429,0.342,3.996,0.328c0,0,0.103-0.006,0.112-0.006l0.042,0.006
	c2.438,0.018,4.215-0.395,5.267-0.746c2.024-0.67,4.042-1.922,5.998-3.717c1.138-1.041,2.742-3.066,3.517-5.346
	c0.651-1.902,0.722-3.826,0.722-4.563l-0.001-0.268V17.516c0-0.399-0.324-0.72-0.72-0.72h-7.788c-0.19,0-0.376,0.077-0.508,0.211
	c-0.135,0.138-0.211,0.317-0.211,0.512l0.033,13.728c0,0.01-0.004,0.886-0.229,1.662c-0.171,0.578-0.558,1.146-0.685,1.275
	c-0.354,0.369-0.93,0.818-1.408,1.002c-0.764,0.285-1.68,0.309-1.689,0.309c-0.015,0-0.093,0.004-0.093,0.004
	c-0.02,0-0.485,0.014-0.939-0.139c-0.345-0.109-0.856-0.453-1.102-0.691c-0.259-0.25-0.72-0.854-0.92-1.338
	c-0.221-0.538-0.255-1.077-0.255-1.083c0,0,0,0,0-0.008c0-0.515-0.087-37.302-0.087-37.302c0-1.353,0.416-2.384,1.238-3.061
	c0.39-0.318,2.33-1.339,4.067-0.066c1.823,1.335,2.002,4.463,2.002,4.492v7.759c0,0.396,0.32,0.719,0.72,0.719h7.746
	c0.192,0,0.374-0.076,0.51-0.211c0.134-0.137,0.211-0.321,0.211-0.512l-0.048-19.923c-0.003-0.396-0.326-0.72-0.719-0.72h-7.857
	c-0.335,0-0.609,0.24-0.684,0.555c-0.11-0.046-0.307-0.131-0.307-0.131c-1.818-0.709-3.857-1.207-5.6-1.372
	C24.33-17.887,20.81-16.252,20.489-16.101 M28.027-16.818c1.675,0.156,3.643,0.64,5.399,1.325c0.465,0.181,0.874,0.364,1.255,0.544
	c0-0.456,0-0.917,0-0.917h7.857l0.044,19.928h-7.747c0,0,0-7.695,0-7.792c-0.007-0.125-0.2-3.506-2.296-5.04
	c-2.127-1.56-4.45-0.323-4.953,0.09c-0.993,0.824-1.496,2.041-1.496,3.619c0,0,0.087,37.239,0.087,37.352
	c0.004,0.055,0.048,0.673,0.308,1.306c0.249,0.611,0.782,1.295,1.086,1.586c0.314,0.305,0.914,0.707,1.377,0.859
	c0.597,0.195,1.183,0.172,1.189,0.172l0.077-0.002c0.01,0,1.042-0.021,1.929-0.355c0.625-0.234,1.298-0.777,1.677-1.172
	c0.197-0.205,0.653-0.879,0.858-1.578c0.257-0.884,0.259-1.852,0.259-1.861l-0.034-13.731h7.788c0,0,0,13.391,0,13.435
	c0,0.046,0,0.122,0,0.249c0,0.702-0.064,2.53-0.676,4.327c-0.736,2.156-2.25,4.068-3.326,5.053c-1.88,1.725-3.811,2.922-5.737,3.563
	c-1.002,0.332-2.694,0.725-5.036,0.705h-0.059L27.74,44.85c-0.549,0.012-2.002,0.041-3.846-0.314
	c-1.615-0.313-3.837-1.061-5.223-2.24c-0.858-0.721-2.403-2.203-3.137-4.016c-0.891-2.182-0.852-4.471-0.852-4.518L14.438-6.884
	v-0.041c0.01-0.188,0.101-1.911,1.116-3.819c0.945-1.787,3.268-3.865,5.285-4.728l-0.077,0.035
	C20.908-15.506,24.353-17.163,28.027-16.818z"/>
<path d="M58.832-6.102l-1.354,0.01c-0.357,0.002-0.652,0.261-0.709,0.609l-3.093,20.208c-0.028,0.206,0.031,0.418,0.167,0.579
	c0.137,0.156,0.339,0.249,0.546,0.249h7.822c0.214,0,0.414-0.092,0.551-0.255c0.138-0.161,0.193-0.374,0.162-0.582L59.548-5.502
	C59.486-5.85,59.186-6.104,58.832-6.102 M57.482-5.372l1.357-0.011l3.369,20.218h-7.821L57.482-5.372z"/>
<path d="M50.09-14.919c-0.394,0-0.716,0.318-0.722,0.713l-0.012,1.979c-0.001,0.347,0.244,0.648,0.585,0.715
	c0.01,0,0.734,0.136,1.375,0.492c0.411,0.224,0.773,0.604,0.955,0.883c0.221,0.338,0.472,0.916,0.539,1.435
	c0.088,0.744-0.055,1.453-0.055,1.462c-0.003,0.036-5.865,38.178-5.865,38.178c-0.147,0.809-0.452,2.146-0.659,2.511
	c-0.197,0.338-0.509,0.887-0.881,1.324c-0.487,0.566-1.063,1.023-1.072,1.029c-0.172,0.135-0.276,0.344-0.276,0.563v1.752
	c0,0.217,0.1,0.42,0.266,0.555c0.167,0.139,0.386,0.193,0.597,0.15l9.522-1.895c0.337-0.066,0.578-0.361,0.578-0.705v-1.971
	c0-0.195-0.079-0.385-0.222-0.52s-0.333-0.207-0.529-0.195c-0.006,0-0.444,0.02-0.887-0.102c-0.401-0.104-0.827-0.385-0.955-0.508
	c-0.11-0.104-0.347-0.45-0.422-0.763c-0.038-0.143-0.047-0.29-0.047-0.418c0-0.185,0.023-0.323,0.023-0.327
	c0.003-0.015,1.602-10.176,1.867-11.866c0.504,0,8.854,0.001,8.989,0.001c0.25,1.437,1.579,9.039,1.579,9.039
	c0.004,0.007,0.092,0.509,0.092,1.034c0,0.093-0.005,0.187-0.012,0.275c-0.024,0.417-0.189,0.812-0.274,0.964
	c-0.086,0.166-0.435,0.604-0.781,0.858c-0.437,0.322-0.927,0.484-0.933,0.488c-0.296,0.096-0.497,0.373-0.497,0.681v1.959
	c0,0.205,0.085,0.398,0.234,0.533c0.155,0.137,0.357,0.201,0.564,0.18l13.277-1.43c0.367-0.041,0.645-0.348,0.645-0.713v-2.385
	c0-0.293-0.243-0.577-0.512-0.687l-0.67-0.271c-0.383-0.2-0.715-0.464-0.823-0.587c-0.094-0.108-0.383-0.436-0.549-0.795
	c-0.208-0.466-0.331-1.005-0.331-1.01c0-0.008-5.501-33.737-5.501-33.737c-0.002-0.015-0.26-1.527-0.26-1.527l-0.078-1.028
	c0-0.293,0-0.645,0.26-1.236c0.152-0.348,0.574-0.709,0.732-0.844c0.164-0.143,0.676-0.476,1.225-0.611
	c0.554-0.142,1.173-0.106,1.179-0.104c0.199,0.013,0.395-0.057,0.538-0.191c0.15-0.138,0.229-0.326,0.229-0.527v-2.08
	c0-0.399-0.32-0.72-0.716-0.72L50.09-14.919 M50.09-14.2h21.309v2.08c0,0-0.726-0.047-1.405,0.123
	c-0.658,0.169-1.267,0.551-1.518,0.765c-0.211,0.181-0.703,0.601-0.918,1.101c-0.315,0.71-0.325,1.17-0.325,1.52
	c0,0.172,0,0.512,0.085,1.133c0.07,0.49,0.262,1.545,0.262,1.545l5.507,33.775c0,0,0.132,0.608,0.381,1.153
	c0.197,0.433,0.514,0.803,0.667,0.974c0.191,0.21,0.597,0.525,1.027,0.748c0.38,0.198,0.792,0.323,0.792,0.323v2.385l-13.28,1.43
	v-1.959c0,0,0.591-0.185,1.138-0.585c0.45-0.331,0.858-0.855,0.99-1.095c0.125-0.23,0.324-0.721,0.36-1.26
	c0.048-0.716-0.093-1.483-0.093-1.483l-1.616-9.242c0,0-0.02-0.174-0.205-0.292c-0.18-0.12-0.396-0.098-0.396-0.098h-9.296
	c0,0-0.19-0.01-0.298,0.078c-0.128,0.095-0.138,0.266-0.138,0.266l-1.898,12.114c0,0-0.1,0.52,0.024,1.042
	c0.115,0.467,0.435,0.933,0.63,1.118c0.207,0.191,0.729,0.539,1.267,0.68c0.564,0.145,1.104,0.119,1.104,0.119v1.969l-9.524,1.896
	v-1.756c0,0,0.627-0.492,1.168-1.125c0.44-0.514,0.796-1.152,0.958-1.438c0.364-0.635,0.75-2.756,0.75-2.756l5.858-38.145
	c0,0,0.167-0.812,0.06-1.692c-0.078-0.642-0.375-1.322-0.642-1.735c-0.253-0.394-0.708-0.848-1.213-1.126
	c-0.765-0.416-1.591-0.57-1.591-0.57L50.09-14.2z"/>
<path d="M71.399-16.647H48.378c-0.394,0-0.716,0.317-0.718,0.709l-0.042,5.129c0,0.343,0.241,0.646,0.582,0.708l1.421,0.277
	c0.097,0.021,0.533,0.126,0.865,0.31c0.132,0.07,0.292,0.234,0.34,0.31c0.107,0.166,0.243,0.497,0.273,0.706l0.015,0.32
	l-0.049,0.608c-0.002,0.001-0.015,0.08-0.015,0.08c-0.004,0.015-5.863,38.162-5.863,38.162c-0.162,0.881-0.401,1.794-0.485,1.972
	c-0.131,0.233-0.396,0.69-0.661,1.003c-0.361,0.418-0.812,0.781-0.829,0.797c0.001,0-0.654,0.514-0.654,0.514
	c-0.171,0.137-0.275,0.342-0.275,0.564v0.836v3.861c0,0.215,0.095,0.416,0.266,0.555c0.163,0.135,0.38,0.189,0.594,0.148
	l12.973-2.582c0.337-0.068,0.576-0.361,0.576-0.701v-5.173c0-0.197-0.078-0.383-0.217-0.521c-0.138-0.133-0.332-0.207-0.519-0.201
	l-1.803,0.062l-0.387-0.044c-0.028-0.006-0.081-0.029-0.131-0.058c0-0.008,0-0.019,0-0.019c0,0.006,1.078-6.834,1.078-6.834
	s0.419-2.687,0.56-3.574c0.938,0,5.138,0,6.061,0c0.18,1.024,1.332,7.612,1.332,7.612l0.064,0.737l-0.005,0.157
	c-0.001,0.073-0.033,0.176-0.061,0.235c-0.055,0.08-0.199,0.24-0.292,0.309c-0.176,0.129-0.41,0.225-0.465,0.242l-1.17,0.395
	c-0.287,0.097-0.484,0.368-0.49,0.671l-0.015,1.248v3.889c0,0.201,0.088,0.398,0.242,0.531c0.151,0.135,0.352,0.203,0.556,0.18
	l16.514-1.838c0.371-0.041,0.389-0.338,0.389-0.705l0.027-5.127c0-0.293-0.183-0.558-0.455-0.666l-0.779-0.433
	c0,0.001-0.328-0.132-0.44-0.18c-0.025-0.015-0.35-0.233-0.357-0.237c0-0.01-0.23-0.322-0.23-0.322c0-0.002-0.213-0.651-0.213-0.651
	c0-0.01-5.489-33.66-5.489-33.66c0-0.004-0.219-1.307-0.249-1.474c-0.003-0.058-0.059-0.748-0.063-0.817
	c0-0.174,0.013-0.271,0.092-0.469c0.034-0.035,0.293-0.285,0.293-0.285c0.054-0.04,0.322-0.198,0.523-0.249
	c0.221-0.055,0.543-0.058,0.656-0.054l1.825,0.107c0.199,0.012,0.393-0.058,0.535-0.193c0.145-0.137,0.226-0.322,0.23-0.52
	l0.004-1.828v-3.817c0-0.4-0.317-0.717-0.716-0.717H71.399 M73.123-15.93v3.808l-0.007,1.828l-1.826-0.105
	c-0.133-0.008-0.545-0.01-0.869,0.074c-0.348,0.085-0.724,0.32-0.817,0.399c-0.341,0.292-0.443,0.43-0.47,0.488
	c-0.171,0.397-0.171,0.583-0.171,0.83l0.068,0.889c0,0,0.249,1.468,0.254,1.502c0,0,5.472,33.568,5.495,33.706
	c0.031,0.138,0.129,0.494,0.261,0.783c0.044,0.102,0.151,0.277,0.383,0.538c0.062,0.064,0.288,0.24,0.54,0.376l0.496,0.198
	l1.225,0.488v5.094l-16.735,1.807v-3.879l0.017-1.246l1.173-0.396c0.1-0.031,0.406-0.159,0.656-0.341
	c0.2-0.146,0.427-0.422,0.496-0.534c0.039-0.076,0.135-0.317,0.151-0.541c0.004-0.07,0.004-0.135,0.004-0.208
	c0-0.35-0.05-0.725-0.073-0.863c0,0-1.151-6.57-1.437-8.205c-1.3,0-5.767,0-7.282,0c-0.47,2.994-1.726,11.001-1.729,11.021
	c-0.005,0.038-0.012,0.098-0.012,0.164c0,0.063,0.006,0.129,0.019,0.18c0.017,0.066,0.091,0.2,0.149,0.274
	c0.093,0.076,0.322,0.215,0.504,0.262c0.237,0.061,0.509,0.066,0.591,0.066l1.797-0.063v5.171l-12.969,2.582v-3.857l0.001-0.838
	l0.653-0.52c0.004,0,0.508-0.402,0.93-0.891c0.303-0.355,0.583-0.842,0.759-1.154c0.132-0.265,0.392-1.305,0.554-2.178l5.855-38.145
	l0.012-0.078c0.006-0.003,0.067-0.328,0.067-0.734c0-0.129-0.008-0.268-0.023-0.409c-0.044-0.341-0.231-0.772-0.38-1.01
	c-0.11-0.168-0.36-0.417-0.599-0.549c-0.409-0.225-0.915-0.355-1.077-0.384l-1.414-0.277l0.038-5.125h23.019h1.726V-15.93z"/>
<path d="M84.479-15.097c-1.146,0.456-1.982,1.152-2.883,1.947c-2.056,1.811-2.271,4.566-2.282,4.684v9.979
	c0,0.046,0,1.13,0.254,2.292c0.187,0.858,0.584,1.764,0.892,2.327c0.346,0.641,0.989,1.461,1.625,2.088
	c0.681,0.667,1.37,1.138,1.396,1.157c0.02,0.015,7.448,4.728,7.448,4.728c0.021,0.014,0.753,0.46,1.335,0.933
	c0.367,0.294,0.623,0.607,0.721,0.746l0.034,0.044c0.127,0.193,0.378,0.554,0.489,0.938c0.192,0.709,0.211,1.557,0.211,1.563v4.481
	c0,0.024,0.015,1.24-0.278,2.3c-0.138,0.486-0.418,0.929-0.633,1.185c-0.588,0.682-1.212,1.175-1.801,1.422
	c-0.838,0.354-1.779,0.367-1.958,0.361l-0.14,0.002c-0.284,0.005-0.875,0.019-1.472-0.173c-0.71-0.226-1.521-0.754-2.11-1.386
	c-0.407-0.434-0.803-1.145-1.008-1.813c-0.245-0.79-0.259-1.491-0.259-1.498l-0.034-5.585c-0.005-0.397-0.324-0.715-0.719-0.715
	h-3.282c-0.398,0-0.723,0.321-0.723,0.717l-0.029,15.427c0,0.189,0.075,0.371,0.21,0.508c0.138,0.135,0.318,0.209,0.508,0.209h3.399
	c0.195,0,0.375-0.074,0.511-0.211c0.133-0.139,0.207-0.316,0.207-0.506c0-0.004-0.022-1.34-0.031-1.956
	c0.623,0.379,2.346,1.404,3.487,1.846c1.4,0.541,3.323,0.867,5.138,0.867c1.652,0,3.109-0.16,4.832-0.943
	c1.22-0.55,2.408-1.479,3.537-2.752c1.849-2.087,2.03-4.931,2.036-5.05l0.008-8.45c0-0.046-0.01-1.096-0.263-2.235
	c-0.201-0.898-0.612-1.861-0.903-2.419c-0.293-0.548-0.839-1.373-1.485-2.025c-0.853-0.861-1.824-1.52-1.868-1.546
	c-0.021-0.015-7.315-4.549-7.315-4.549c-0.781-0.511-1.76-1.251-1.96-1.53c-0.156-0.224-0.563-0.807-0.738-1.301
	c-0.236-0.679-0.256-1.348-0.256-1.355v-5.771c0-0.006,0.001-0.744,0.361-1.517c0.175-0.37,0.516-0.811,0.947-1.212
	c0.748-0.698,1.941-1.167,2.967-1.167c1.105,0,3.206,0.673,4.194,2.123c0.396,0.583,0.793,1.17,0.974,1.74
	c0.449,1.413,0.373,2.81,0.373,2.824l-0.008,2.442c0,0.399,0.32,0.719,0.721,0.719h3.509c0.395,0,0.715-0.32,0.715-0.719v-13.295
	c0-0.399-0.32-0.722-0.715-0.722h-3.642c-0.394,0-0.714,0.322-0.714,0.722c0,0,0,0.885,0,1.579c-0.734-0.543-1.983-1.42-2.882-1.842
	c-1.169-0.545-2.252-0.923-3.215-1.129c-1.551-0.331-3.094-0.355-3.156-0.358C88.2-15.931,86.233-15.795,84.479-15.097
	 M80.024,17.627h3.282l0.037,5.591c0,0,0.005,0.791,0.283,1.702c0.232,0.736,0.673,1.557,1.177,2.091
	c0.665,0.713,1.566,1.312,2.417,1.582c0.823,0.259,1.601,0.2,1.822,0.206c0.249,0,1.28-0.012,2.24-0.421
	c0.788-0.331,1.502-0.957,2.07-1.618c0.293-0.343,0.622-0.881,0.785-1.458c0.324-1.179,0.306-2.495,0.306-2.495v-4.494
	c0,0-0.022-0.931-0.245-1.742c-0.15-0.535-0.472-0.989-0.619-1.199c-0.144-0.206-0.446-0.564-0.858-0.896
	c-0.626-0.507-1.4-0.979-1.4-0.979l-7.432-4.713c0,0-0.656-0.448-1.3-1.079c-0.606-0.6-1.197-1.367-1.494-1.917
	c-0.265-0.483-0.641-1.326-0.817-2.138c-0.246-1.096-0.243-2.138-0.243-2.138v-9.928c0,0,0.184-2.558,2.04-4.192
	c0.809-0.719,1.616-1.396,2.671-1.822c1.632-0.648,3.476-0.782,3.999-0.777c0,0,1.52,0.019,3.019,0.337
	c1.273,0.274,2.507,0.824,3.06,1.082c1.262,0.587,3.357,2.217,3.357,2.217s0.29,0.16,0.438,0.087c0.146-0.069,0.105-0.36,0.105-0.36
	v-2.334h3.641v13.292h-3.507v-2.396c0,0,0.097-1.517-0.402-3.086c-0.212-0.68-0.651-1.315-1.067-1.928
	c-1.131-1.662-3.426-2.44-4.786-2.44c-1.203,0-2.581,0.542-3.457,1.361c-0.458,0.426-0.88,0.939-1.109,1.439
	c-0.434,0.94-0.43,1.816-0.43,1.816v5.792c0,0,0.024,0.772,0.301,1.572c0.207,0.595,0.654,1.228,0.83,1.475
	c0.403,0.571,2.17,1.73,2.17,1.73l7.291,4.536c0,0,0.945,0.636,1.76,1.456c0.625,0.626,1.112,1.397,1.356,1.856
	c0.255,0.477,0.651,1.381,0.839,2.24c0.238,1.075,0.241,2.079,0.241,2.079v8.407c0,0-0.155,2.689-1.856,4.619
	c-0.878,0.984-1.982,1.978-3.3,2.573c-1.508,0.69-2.819,0.882-4.533,0.882c-1.718,0-3.54-0.298-4.88-0.817
	c-1.335-0.522-3.615-1.942-3.615-1.942s-0.367-0.286-0.617-0.197c-0.249,0.088-0.24,0.499-0.24,0.499l0.04,2.418h-3.396
	L80.024,17.627z"/>
<path d="M83.842-16.7c-1.4,0.558-2.401,1.387-3.387,2.256c-2.532,2.234-2.834,5.491-2.86,5.856l-0.005,0.061V1.517
	c0,0.22,0.009,1.375,0.293,2.658c0.291,1.307,0.89,2.462,1.063,2.784c0.426,0.781,1.185,1.756,1.932,2.493
	c0.756,0.739,1.494,1.257,1.634,1.352c0.013,0.009,0.059,0.041,0.059,0.041c0.009,0.004,7.443,4.721,7.443,4.721
	c0.006,0.003,1.173,0.817,1.173,0.817l0.377,0.378l0.032,0.049c0.179,0.258,0.232,0.37,0.247,0.417
	c0.103,0.38,0.147,0.933,0.151,1.143v4.473c0,0.171-0.012,1.065-0.214,1.803c-0.056,0.193-0.184,0.411-0.282,0.522
	c-0.406,0.47-0.825,0.819-1.165,0.964c-0.375,0.158-0.91,0.226-1.267,0.222c-0.015,0-0.18,0.004-0.18,0.004
	c-0.215,0.004-0.597,0.011-0.927-0.094c-0.435-0.135-0.985-0.505-1.376-0.919c-0.225-0.246-0.492-0.735-0.617-1.144
	c-0.166-0.529-0.18-1.006-0.18-1.027l-0.046-7.27c-0.002-0.398-0.326-0.715-0.723-0.715H78.3c-0.401,0-0.722,0.321-0.722,0.718
	l-0.035,18.875c0,0.189,0.074,0.375,0.21,0.51c0.136,0.135,0.318,0.211,0.51,0.211h6.881c0.189,0,0.376-0.076,0.512-0.215
	c0.129-0.135,0.201-0.32,0.201-0.502c0-0.004-0.004-0.391-0.009-0.721c0.405,0.201,0.778,0.369,1.087,0.492
	c1.613,0.625,3.715,0.982,5.765,0.982c2.223,0,3.827-0.314,5.545-1.094c1.438-0.654,2.824-1.726,4.117-3.184
	c2.2-2.487,2.445-5.735,2.465-6.096c0.008-0.015,0.008-0.076,0.008-0.09v-8.458c0-0.13-0.011-1.302-0.296-2.605
	c-0.237-1.068-0.704-2.176-1.07-2.856c-0.166-0.319-0.794-1.439-1.777-2.432c-0.979-0.982-2.084-1.731-2.129-1.766
	c-0.011-0.005-0.069-0.041-0.069-0.041c-0.009-0.006-7.302-4.542-7.302-4.542c-0.665-0.438-1.359-0.977-1.507-1.13
	c-0.328-0.472-0.44-0.71-0.47-0.806c-0.139-0.403-0.166-0.825-0.167-0.841l0.001-5.71c0,0.006,0.019-0.395,0.205-0.795
	c0.063-0.134,0.261-0.399,0.556-0.677c0.418-0.39,1.207-0.699,1.789-0.699c0.768,0,2.188,0.519,2.767,1.369
	c0.322,0.472,0.655,0.961,0.756,1.289c0.346,1.083,0.294,2.194,0.29,2.205c0,0.013-0.003,0.077-0.003,0.088v4.176
	c0,0.399,0.321,0.72,0.717,0.72h6.96c0.397,0,0.715-0.321,0.715-0.72v-16.747c0-0.4-0.32-0.72-0.715-0.72h-7.086
	c-0.398,0-0.72,0.32-0.72,0.72c0,0,0,0.101,0,0.123c-0.148-0.079-0.294-0.165-0.428-0.226c-1.286-0.6-2.489-1.023-3.582-1.252
	c-1.716-0.368-3.425-0.393-3.495-0.395C88.089-17.663,85.866-17.508,83.842-16.7 M88.767-16.933c0.068,0,1.708,0.027,3.352,0.376
	c1.04,0.224,2.192,0.627,3.427,1.203c0.45,0.21,0.955,0.514,1.453,0.832c0-0.441,0-1.38,0-1.38h7.089V0.839h-6.963v-4.177
	l0.006-0.047c0-0.014,0.064-1.242-0.322-2.463c-0.137-0.431-0.489-0.953-0.85-1.476C95.208-8.422,93.53-9.007,92.6-9.007
	c-0.764,0-1.724,0.376-2.28,0.896c-0.333,0.31-0.604,0.646-0.722,0.897c-0.256,0.556-0.269,1.099-0.269,1.094c0,0,0,5.663,0,5.747
	c0.002,0.044,0.03,0.545,0.207,1.045c0.122,0.352,0.456,0.833,0.59,1.026c0.188,0.216,1.001,0.833,1.687,1.283l7.292,4.532
	l0.061,0.037c0.043,0.029,1.092,0.744,2.016,1.673c0.909,0.924,1.503,1.965,1.659,2.264c0.34,0.64,0.773,1.676,0.998,2.672
	c0.272,1.224,0.278,2.327,0.278,2.452v8.457l-0.003,0.049c-0.02,0.336-0.24,3.354-2.287,5.663c-1.228,1.381-2.526,2.392-3.877,3.005
	c-1.616,0.732-3.132,1.027-5.246,1.027c-1.966,0-3.974-0.336-5.506-0.936c-0.626-0.242-1.395-0.635-2.085-1.016
	c0,0.021,0.035,1.914,0.035,1.914h-6.881l0.037-18.876h6.718c0,0,0.047,7.282,0.047,7.289l0,0c0,0.009,0.017,0.579,0.212,1.219
	c0.163,0.514,0.481,1.101,0.785,1.422c0.472,0.504,1.129,0.94,1.678,1.115c0.44,0.141,0.904,0.131,1.15,0.126h0.168
	c0.401,0.001,1.046-0.07,1.555-0.285c0.446-0.187,0.951-0.596,1.429-1.155c0.151-0.178,0.342-0.489,0.431-0.799
	c0.23-0.831,0.239-1.808,0.239-1.997c0-0.017,0-4.49,0-4.49c-0.002-0.203-0.044-0.834-0.179-1.317
	c-0.059-0.22-0.245-0.489-0.344-0.634l-0.036-0.047c-0.043-0.064-0.234-0.304-0.517-0.532c-0.529-0.425-1.21-0.847-1.24-0.864
	l-7.434-4.715l-0.044-0.032c-0.083-0.053-0.807-0.554-1.542-1.271c-0.7-0.691-1.405-1.601-1.801-2.321
	C79.416,6.312,78.86,5.23,78.589,4.02c-0.267-1.235-0.278-2.359-0.278-2.506v-9.994l0.006-0.059
	c0.024-0.333,0.292-3.323,2.617-5.369c0.936-0.827,1.884-1.61,3.179-2.124C86.021-16.797,88.117-16.94,88.767-16.933z"/>
<path d="M107.664-14.913c-0.195,0-0.377,0.077-0.514,0.213c-0.131,0.135-0.206,0.32-0.206,0.51l0.005,2.054
	c0.005,0.349,0.252,0.645,0.592,0.708c0.005,0,0.579,0.106,1.114,0.354c0.497,0.23,0.957,0.605,1.134,0.788
	c0.105,0.115,0.484,0.533,0.647,0.998c0.204,0.577,0.229,1.231,0.229,1.24c0,0,0.089,34.654,0.089,34.656
	c0-0.012-0.021,0.594-0.188,1.178c-0.14,0.472-0.419,0.943-0.572,1.123c-0.186,0.213-0.651,0.638-1.123,0.874
	c-0.567,0.277-1.178,0.382-1.181,0.384c-0.35,0.058-0.604,0.357-0.604,0.709v2.175c0,0.365,0.279,0.676,0.648,0.709
	c0.051,0.006,5.132,0.502,7.784,0.672c0.985,0.064,1.655,0.139,5.372,0.543l2.033,0.227c0.205,0.021,0.404-0.043,0.559-0.18
	c0.153-0.137,0.235-0.332,0.235-0.535v-2.05c0-0.361-0.264-0.669-0.618-0.716c-0.011,0-0.446-0.063-0.903-0.263
	c-0.524-0.224-1.109-0.623-1.288-0.811c-0.206-0.207-0.583-0.7-0.744-1.1c-0.226-0.544-0.241-1.072-0.241-1.08
	c0,0-0.043-14.39-0.051-16.373c0.491,0,3.877-0.005,3.877-0.005c0.02,0,0.487-0.005,0.976,0.212c0.27,0.123,0.629,0.4,1.06,0.823
	c0.171,0.163,0.45,0.596,0.634,1.04c0.236,0.572,0.362,1.157,0.362,1.166c0.073,0.333,0.363,0.572,0.707,0.572h3.139
	c0.397,0,0.718-0.323,0.718-0.718V4.079c0-0.399-0.32-0.719-0.718-0.719h-3.212c-0.362,0-0.671,0.266-0.715,0.625
	c0,0.005-0.066,0.491-0.284,0.982c-0.205,0.473-0.586,0.978-0.729,1.134c-0.123,0.127-0.494,0.519-0.9,0.702
	c-0.411,0.186-0.916,0.222-0.918,0.222c0,0-3.637,0-4.031,0c0-0.557-0.026-15.944-0.026-16.402c1.051,0,5.011,0.003,5.011,0.003l0,0
	c0,0,0.871,0.019,1.712,0.298c0.578,0.193,1.168,0.622,1.425,0.844c0.3,0.257,0.833,0.872,1.076,1.427
	c0.313,0.695,0.344,1.375,0.344,1.38v3.091c0,0.397,0.318,0.72,0.713,0.72h3.806c0.402,0,0.719-0.322,0.719-0.72v-11.86
	c0-0.397-0.321-0.721-0.719-0.721L107.664-14.913 M107.664-14.192h26.232v11.857h-3.801V-5.45c0,0-0.026-0.806-0.402-1.646
	c-0.294-0.67-0.902-1.366-1.264-1.681c-0.332-0.286-1.002-0.76-1.668-0.981c-0.965-0.322-1.938-0.337-1.938-0.337h-5.242
	c0,0-0.278-0.016-0.402,0.097c-0.116,0.109-0.087,0.382-0.087,0.382l0.028,16.929c0,0-0.024,0.25,0.09,0.345
	c0.114,0.093,0.407,0.081,0.407,0.081h4.299c0,0,0.623-0.039,1.169-0.284c0.505-0.227,0.921-0.654,1.125-0.86
	c0.197-0.212,0.621-0.784,0.865-1.342c0.269-0.599,0.342-1.177,0.342-1.177h3.212V15.18h-3.139c0,0-0.132-0.647-0.404-1.298
	c-0.214-0.52-0.545-1.029-0.792-1.272c-0.244-0.234-0.774-0.741-1.271-0.967c-0.652-0.293-1.269-0.276-1.269-0.276l-4.165,0.008
	c0,0-0.186-0.046-0.321,0.097c-0.153,0.162-0.116,0.382-0.116,0.382l0.055,16.629c0,0,0.016,0.65,0.297,1.334
	c0.216,0.535,0.675,1.11,0.893,1.334c0.261,0.262,0.917,0.708,1.516,0.966c0.569,0.246,1.094,0.316,1.094,0.316v2.05
	c-5.607-0.613-6.28-0.695-7.44-0.771c-2.668-0.174-7.761-0.664-7.761-0.664v-2.174c0,0,0.713-0.114,1.389-0.451
	c0.578-0.289,1.116-0.781,1.344-1.049c0.227-0.261,0.549-0.816,0.723-1.391c0.196-0.687,0.213-1.38,0.213-1.38l-0.089-34.673
	c0,0-0.019-0.76-0.269-1.464c-0.193-0.538-0.585-1.016-0.807-1.25c-0.243-0.253-0.784-0.681-1.352-0.945
	c-0.636-0.294-1.287-0.41-1.287-0.41L107.664-14.192z"/>
<path d="M133.896-16.637h-27.966c-0.19,0-0.374,0.077-0.511,0.213c-0.134,0.134-0.209,0.318-0.209,0.509l0.021,5.212
	c0,0.344,0.246,0.638,0.586,0.702l1.411,0.266c0.075,0.015,0.423,0.096,0.701,0.222c0.258,0.124,0.546,0.351,0.607,0.418
	c0.147,0.15,0.255,0.328,0.279,0.383c0.084,0.243,0.122,0.595,0.126,0.717l0.09,34.556c-0.001,0.076-0.035,0.442-0.122,0.74
	c-0.063,0.222-0.204,0.451-0.238,0.5c-0.062,0.064-0.35,0.324-0.57,0.433c-0.246,0.125-0.58,0.207-0.697,0.226l-1.434,0.248
	c-0.347,0.058-0.596,0.355-0.601,0.705l-0.009,1.456v3.743c0,0.371,0.281,0.68,0.65,0.715l1.559,0.154
	c0.89,0.086,5.345,0.508,7.839,0.672c0.951,0.063,1.609,0.135,5.29,0.539l3.952,0.432c0.202,0.023,0.407-0.041,0.56-0.18
	c0.155-0.137,0.239-0.332,0.239-0.533l-0.005-5.467c0-0.359-0.258-0.661-0.61-0.713l-1.492-0.22l0,0l-0.459-0.139
	c-0.314-0.135-0.686-0.388-0.769-0.462c-0.066-0.063-0.295-0.377-0.35-0.511c-0.08-0.19-0.109-0.409-0.117-0.508
	c0,0,0-0.004,0-0.007c0-0.297-0.03-11.595-0.043-14.565c0.812-0.002,2.151-0.005,2.151-0.005c0.027,0,0.162,0.02,0.261,0.061
	c0,0.003,0.183,0.11,0.564,0.481c0,0.008,0.147,0.226,0.247,0.473l0.271,0.853l0.287,1.369c0.07,0.333,0.36,0.57,0.699,0.57
	l1.403,0.005h4.866c0.397,0,0.718-0.322,0.718-0.721V2.352c0-0.397-0.32-0.719-0.718-0.719h-6.436c-0.357,0-0.659,0.265-0.71,0.616
	l-0.213,1.493l-0.157,0.532c-0.108,0.252-0.353,0.582-0.411,0.649c-0.232,0.244-0.351,0.309-0.351,0.309
	c0-0.002-0.266,0.055-0.306,0.067c-0.081,0-1.4,0-2.204,0c0-1.278-0.023-12.656-0.026-12.95c0.974,0.002,3.283,0.002,3.283,0.002
	c0.035,0.001,0.632,0.035,1.169,0.211c0.239,0.082,0.63,0.33,0.844,0.513c0.162,0.147,0.516,0.574,0.626,0.825
	c0.165,0.367,0.191,0.74,0.196,0.753l-0.005,4.738c0,0.396,0.32,0.722,0.718,0.722h7.253c0.399,0,0.72-0.325,0.72-0.722v-15.31
	c0-0.396-0.32-0.72-0.72-0.72H133.896 M135.624-15.917v15.31h-7.253c0,0,0-4.679,0-4.787c-0.003-0.05-0.037-0.519-0.255-0.998
	c-0.165-0.371-0.584-0.875-0.81-1.075c-0.269-0.228-0.736-0.535-1.091-0.651c-0.671-0.228-1.392-0.25-1.392-0.25l0,0
	c0,0-2.561,0-4.002,0c0.004,1.965,0.021,12.351,0.022,14.385c1.215,0,2.852,0,2.979,0c0.119-0.013,0.377-0.055,0.554-0.131
	c0.084-0.038,0.271-0.15,0.581-0.479c0.086-0.092,0.384-0.498,0.539-0.845c0.151-0.351,0.21-0.711,0.21-0.714l0.21-1.496h6.436
	v14.552h-4.863l-1.403,0l-0.284-1.373c0-0.002-0.11-0.503-0.308-0.981c-0.145-0.337-0.344-0.634-0.418-0.709
	c-0.497-0.485-0.724-0.602-0.769-0.622c-0.224-0.099-0.463-0.124-0.554-0.124c0,0-1.642,0-2.875,0.003
	c0.013,3.799,0.05,15.331,0.05,15.331c0,0.004,0.018,0.372,0.165,0.738c0.107,0.258,0.405,0.647,0.521,0.767
	c0.12,0.111,0.569,0.421,0.976,0.6c0.329,0.14,0.647,0.188,0.647,0.188l1.488,0.221v5.466l-3.945-0.432
	c-3.7-0.406-4.363-0.48-5.326-0.543c-2.671-0.172-7.611-0.65-7.819-0.672l-1.558-0.148v-3.739l0.01-1.456l1.433-0.247
	c0.134-0.022,0.554-0.12,0.902-0.291c0.325-0.163,0.689-0.495,0.801-0.627c0.075-0.083,0.28-0.418,0.372-0.751
	c0.114-0.369,0.149-0.795,0.152-0.941c0-1.002-0.091-34.578-0.091-34.578c-0.005-0.141-0.048-0.584-0.169-0.935
	c-0.064-0.173-0.24-0.438-0.433-0.638c-0.108-0.113-0.474-0.406-0.833-0.57c-0.336-0.161-0.742-0.255-0.865-0.279l-1.414-0.265
	l-0.017-5.212h27.965h1.731V-15.917z"/>
<path d="M152.311-14.905l-13.795,0.035c-0.401,0.003-0.718,0.324-0.718,0.722v2.027c0,0.257,0.195,0.524,0.416,0.653l0.777,0.459
	c0.354,0.252,0.645,0.518,0.733,0.637c0.147,0.189,0.442,0.565,0.601,0.969c0.194,0.497,0.242,1.107,0.242,1.112
	c0-0.055,0.036,38.58,0.036,38.58c0,0.007,0,0.588-0.135,1.162c-0.133,0.542-0.401,1.051-0.509,1.191
	c-0.192,0.247-0.645,0.745-1.139,1.009c-0.534,0.291-1.188,0.379-1.193,0.379c-0.36,0.045-0.626,0.352-0.626,0.715v2.115
	c0,0.338,0.236,0.631,0.567,0.705l8.479,1.846c1.279,0.277,7.11,1.74,7.165,1.75c0.217,0.059,0.442,0.008,0.618-0.129
	c0.177-0.137,0.276-0.346,0.276-0.564l-0.011-2.322c0-0.322-0.218-0.602-0.534-0.688c0-0.002-0.46-0.131-0.914-0.406
	c-0.64-0.387-1.255-0.953-1.392-1.131c-0.125-0.164-0.533-0.736-0.707-1.303c-0.191-0.623-0.199-1.285-0.199-1.324
	c0,0-0.008-40.389-0.008-41.182c0.008-0.072,0.07-0.724,0.244-1.333c0.113-0.371,0.315-0.732,0.419-0.876
	c0.154-0.204,0.572-0.612,0.987-0.913l0.615-0.366c0.214-0.13,0.421-0.402,0.421-0.654v-2.159c0-0.188-0.074-0.371-0.21-0.51
	C152.681-14.833,152.499-14.91,152.311-14.905 M138.516-14.149l13.795-0.042v2.16c0,0-0.36,0.163-0.739,0.441
	c-0.442,0.32-0.925,0.774-1.139,1.066c-0.154,0.211-0.397,0.643-0.527,1.1c-0.217,0.722-0.279,1.499-0.279,1.499l0.008,41.211
	c0,0-0.008,0.779,0.229,1.547c0.202,0.648,0.634,1.273,0.82,1.518c0.221,0.295,0.929,0.916,1.599,1.32
	c0.55,0.328,1.102,0.477,1.102,0.477l0.008,2.318c0,0-5.887-1.471-7.183-1.758c-1.298-0.285-8.488-1.846-8.488-1.846v-2.117
	c0,0,0.774-0.098,1.448-0.463c0.645-0.346,1.175-0.957,1.367-1.209c0.184-0.239,0.486-0.849,0.629-1.456
	c0.162-0.671,0.162-1.329,0.162-1.329l-0.044-38.634c0,0-0.051-0.708-0.287-1.319c-0.194-0.508-0.538-0.94-0.699-1.147
	c-0.16-0.209-0.521-0.522-0.881-0.778c-0.438-0.319-0.899-0.532-0.899-0.532V-14.149L138.516-14.149z"/>
<path d="M154.035-16.639l-17.243,0.051c-0.397,0-0.718,0.323-0.718,0.718v4.736c0,0.257,0.132,0.494,0.353,0.621l0.995,0.578
	c0,0,0.482,0.281,0.579,0.344c0.025,0.019,0.404,0.332,0.404,0.332c0.045,0.059,0.243,0.317,0.311,0.484
	c0.065,0.164,0.105,0.426,0.129,0.576c0,0.097,0.036,38.489,0.036,38.489s-0.004,0.398-0.092,0.754
	c-0.063,0.259-0.188,0.508-0.229,0.578c-0.14,0.178-0.395,0.426-0.557,0.512c-0.195,0.105-0.519,0.176-0.61,0.188l-1.485,0.209
	c-0.357,0.047-0.62,0.349-0.626,0.704l-0.013,1.504v3.514c0,0.342,0.244,0.629,0.572,0.703l9.843,2.143
	c0.873,0.193,4.221,1.016,7.062,1.73c0.048,0.008,2.206,0.551,2.206,0.551c0.213,0.055,0.435,0.006,0.612-0.131
	c0.177-0.135,0.279-0.346,0.279-0.568l-0.026-5.838c0-0.318-0.213-0.6-0.523-0.686l-1.255-0.363l0,0l-0.493-0.219
	c-0.439-0.26-0.87-0.652-0.944-0.736c-0.165-0.227-0.35-0.541-0.404-0.729c-0.089-0.291-0.118-0.682-0.118-0.814
	c0,0-0.011-40.175-0.011-41.087c0.019-0.154,0.07-0.564,0.184-0.944l0.158-0.348c0.037-0.05,0.303-0.309,0.583-0.515
	c0.066-0.042,1.244-0.75,1.244-0.75c0.188-0.114,0.31-0.297,0.344-0.507l0.166-1.064c0.003-0.038,0.011-0.075,0.011-0.111v-3.885
	c0-0.193-0.079-0.377-0.218-0.513C154.411-16.564,154.227-16.639,154.035-16.639 M154.039-15.917v3.887l-0.17,1.062l-1.278,0.773
	c-0.357,0.255-0.688,0.587-0.77,0.693c-0.056,0.08-0.191,0.33-0.266,0.56c-0.132,0.466-0.191,0.962-0.205,1.104
	c0,1.877,0.011,41.129,0.011,41.129c0,0.15,0.021,0.625,0.146,1.025c0.104,0.324,0.357,0.73,0.545,0.986
	c0.134,0.15,0.634,0.594,1.12,0.887c0.32,0.193,0.664,0.293,0.664,0.293l1.263,0.361l0.022,5.832l-2.155-0.537
	c-0.06-0.016-5.878-1.471-7.135-1.748l-9.843-2.143v-3.506l0.014-1.508l1.488-0.205c0.126-0.016,0.549-0.102,0.854-0.267
	c0.314-0.17,0.656-0.531,0.807-0.727c0.063-0.099,0.239-0.462,0.332-0.825c0.107-0.449,0.11-0.924,0.11-0.924
	s-0.04-38.344-0.04-38.537c-0.011-0.142-0.066-0.514-0.174-0.79c-0.103-0.264-0.323-0.552-0.441-0.707
	c-0.052-0.055-0.247-0.242-0.538-0.447l-0.618-0.367l-0.994-0.578v-4.733l15.516-0.043L154.039-15.917z"/>
<path d="M158.246-14.9c-0.384,0-0.707,0.309-0.718,0.695l-0.074,2.019c-0.012,0.318,0.19,0.605,0.489,0.708
	c0.784,0.257,2.049,0.818,2.409,1.248c0.226,0.264,0.505,0.731,0.638,1.176c0.206,0.696,0.214,1.413,0.214,1.419v43.502
	c0-0.02-0.034,0.715-0.214,1.328c-0.126,0.414-0.354,0.725-0.527,0.914c-0.155,0.168-0.516,0.41-0.954,0.551
	c-0.582,0.193-1.208,0.234-1.212,0.238c-0.379,0.027-0.671,0.336-0.671,0.715v2.219c0,0.316,0.207,0.598,0.513,0.689
	c0.063,0.018,6.075,1.834,10.208,3.23c4.122,1.393,12.724,4.674,12.811,4.707c0.196,0.078,0.424,0.059,0.612-0.047
	c0.188-0.105,0.316-0.295,0.35-0.504l3.592-21.214c0.033-0.209-0.026-0.422-0.161-0.583c-0.134-0.163-0.339-0.255-0.55-0.256
	l-2.25-0.008c-0.325,0-0.609,0.214-0.696,0.524l-2.937,10.321c0,0.006-0.276,0.699-0.276,0.699
	c-0.236,0.469-0.581,0.967-0.862,1.244c-0.258,0.256-0.92,0.725-1.337,0.957c-0.338,0.188-0.542,0.234-0.811,0.281
	c-0.273,0.051-1.304,0.121-1.83,0.002c-0.097-0.02-0.233-0.063-0.233-0.063c-0.047-0.016-2.529-0.789-2.529-0.789l0,0
	c0,0-0.078-0.039-0.147-0.072c-0.005-0.021-0.005-0.049-0.005-0.049S171.05-8.183,171.05-8.189c0,0.017,0.041-0.644,0.331-1.273
	c0.186-0.405,0.638-0.883,0.852-1.082c0.258-0.236,1.256-0.685,2.037-0.969c0.284-0.104,0.476-0.375,0.476-0.676v-1.989
	c0-0.399-0.325-0.722-0.718-0.722L158.246-14.9 M158.246-14.177h15.781v1.989c0,0-1.762,0.636-2.281,1.115
	c-0.214,0.195-0.771,0.759-1.023,1.31c-0.357,0.78-0.395,1.574-0.395,1.574l0.032,49.062c0,0-0.019,0.363,0.11,0.523
	c0.129,0.168,0.554,0.313,0.554,0.313l2.482,0.775c0,0,0.242,0.076,0.35,0.098c0.442,0.1,1.751,0.053,2.027,0.006
	c0.268-0.041,0.578-0.104,1.083-0.355c0.504-0.258,1.215-0.791,1.514-1.088c0.36-0.357,0.75-0.938,0.997-1.432
	c0.229-0.449,0.328-0.822,0.328-0.822l2.937-10.324L185,28.576l-3.588,21.213c0,0-8.652-3.305-12.842-4.721
	c-4.191-1.416-10.225-3.234-10.225-3.234v-2.221c0,0,0.702-0.045,1.389-0.264c0.515-0.17,0.998-0.471,1.251-0.752
	c0.258-0.275,0.539-0.686,0.694-1.199c0.21-0.713,0.239-1.527,0.239-1.527V-7.636c0,0,0-0.81-0.239-1.621
	c-0.166-0.563-0.51-1.116-0.781-1.437c-0.656-0.78-2.727-1.468-2.727-1.468L158.246-14.177z"/>
<path d="M213.987-14.927c-0.34,0-0.634,0.24-0.704,0.576c0,0-6.781,32.735-6.841,33.021c-0.357-0.005-1.223-0.015-1.559-0.015
	c-0.021-0.072-0.051-0.152-0.051-0.152c0,0.018-6.903-32.837-6.903-32.837c-0.073-0.336-0.365-0.573-0.704-0.573h-13.147
	c-0.19,0-0.374,0.078-0.508,0.215c-0.132,0.137-0.21,0.322-0.21,0.516l0.034,2.096c0.003,0.348,0.261,0.642,0.597,0.7
	c0.011,0,0.629,0.107,1.215,0.379c0.523,0.248,1.006,0.665,1.209,0.886c0.231,0.259,0.53,0.775,0.662,1.267
	c0.129,0.504,0.107,1.024,0.107,1.029c-0.007,0.043,0.021,52.531,0.021,52.531c0,0.023,0.011,0.48-0.154,0.918
	c-0.158,0.436-0.526,0.885-0.711,1.064c-0.21,0.193-0.615,0.469-1.062,0.643c-0.618,0.238-1.325,0.373-1.333,0.373
	c-0.342,0.059-0.589,0.361-0.589,0.703v2.496c0,0.285,0.177,0.547,0.435,0.666l5.102,2.27l6.233,2.893
	c0.221,0.102,0.481,0.084,0.688-0.047c0.206-0.131,0.332-0.357,0.332-0.605v-2.197c0-0.291-0.177-0.553-0.442-0.664
	c-0.005-0.004-0.612-0.252-1.198-0.617c-0.497-0.307-0.928-0.689-1.083-0.893c-0.202-0.268-0.597-0.857-0.77-1.391
	c-0.225-0.672-0.243-1.334-0.243-1.342c0,0,0.04-38.997,0.048-42.774c0.381,0,1.493,0,1.816,0
	c0.692,3.207,9.301,43.056,9.301,43.056c0.071,0.334,0.232,1.629,0.715,1.643c0.45,0.014,0.674-1.301,0.744-1.635
	c0,0,8.918-42.788,8.978-43.083c0.456,0.005,1.502,0.012,1.931,0.016c-0.005,3.917-0.037,55.928-0.037,55.928
	c-0.026,0.938-0.221,2.217-0.453,2.5l-0.118,0.156c-0.243,0.311-0.611,0.789-1.062,1.055c-0.61,0.359-1.414,0.479-1.422,0.482
	c-0.35,0.049-0.615,0.354-0.615,0.711v2.195c0,0.395,0.325,0.715,0.718,0.715h17.075c0.194,0,0.375-0.07,0.512-0.207
	c0.137-0.139,0.21-0.32,0.21-0.508l-0.018-2.277c-0.005-0.363-0.276-0.668-0.642-0.707c-0.011,0-0.545-0.064-1.057-0.24
	c-0.531-0.184-0.991-0.482-1.136-0.627c-0.194-0.193-0.662-0.729-0.847-1.131c-0.258-0.568-0.269-1.104-0.269-1.105
	c0,0-0.033-71.207-0.033-71.212c0,0.016,0.018-0.558,0.229-1.11c0.154-0.416,0.489-0.865,0.74-1.104
	c0.209-0.211,0.634-0.52,1.094-0.722c0.615-0.274,1.255-0.414,1.255-0.414c0.333-0.073,0.572-0.364,0.572-0.705v-2.079
	c0-0.396-0.32-0.722-0.719-0.722H213.987 M184.078-14.186h13.147l6.903,32.855c0,0,0.084,0.358,0.229,0.52
	c0.147,0.159,0.384,0.182,0.384,0.182l1.903,0.019c0,0,0.218-0.01,0.303-0.098c0.081-0.089,0.165-0.332,0.165-0.332l6.875-33.164
	h15.931v2.083c0,0-0.704,0.149-1.398,0.463c-0.523,0.23-1.028,0.584-1.312,0.864c-0.295,0.294-0.697,0.822-0.899,1.368
	c-0.258,0.681-0.28,1.363-0.28,1.363l0.033,71.211c0,0,0,0.666,0.335,1.4c0.236,0.533,0.785,1.137,0.995,1.35
	c0.247,0.24,0.821,0.586,1.404,0.789c0.603,0.211,1.215,0.277,1.215,0.277l0.019,2.268h-17.075v-2.193c0,0,0.93-0.137,1.681-0.574
	c0.656-0.391,1.124-1.063,1.382-1.383c0.541-0.676,0.607-2.949,0.607-2.949l0.037-56.149c0,0,0.015-0.265-0.147-0.406
	c-0.132-0.121-0.368-0.091-0.368-0.091l-2.303-0.018c0,0-0.239-0.02-0.342,0.062c-0.097,0.083-0.155,0.362-0.155,0.362l-9.036,43.22
	l-9.374-43.252c0,0-0.042-0.252-0.14-0.33c-0.097-0.075-0.297-0.044-0.297-0.044h-2.316c0,0-0.168-0.037-0.36,0.081
	c-0.092,0.063-0.081,0.319-0.081,0.319l-0.045,43.103c0,0,0.016,0.766,0.276,1.561c0.21,0.641,0.652,1.307,0.881,1.602
	c0.229,0.297,0.748,0.734,1.274,1.066c0.649,0.402,1.305,0.668,1.305,0.668v2.197c0,0-3.345-1.576-6.236-2.895
	c-2.892-1.326-5.124-2.281-5.124-2.281v-2.496c0,0,0.776-0.135,1.47-0.406c0.563-0.221,1.034-0.553,1.288-0.791
	c0.269-0.248,0.7-0.791,0.896-1.338c0.216-0.582,0.198-1.166,0.198-1.166l-0.021-52.485c0,0,0.033-0.624-0.137-1.262
	c-0.163-0.611-0.521-1.227-0.818-1.555c-0.28-0.314-0.844-0.778-1.436-1.061c-0.69-0.322-1.397-0.438-1.397-0.438L184.078-14.186z"
	/>
<path d="M232.445,65.42c-0.003-0.365-0.279-0.67-0.637-0.713l-1.522-0.174l-0.691-0.154c-0.239-0.084-0.449-0.215-0.521-0.262
	c-0.184-0.193-0.407-0.488-0.452-0.578c-0.097-0.223-0.115-0.449-0.115-0.451l-0.036-71.097c0.012-0.066,0.044-0.351,0.122-0.563
	c0.048-0.125,0.209-0.361,0.327-0.479c0.055-0.053,0.31-0.249,0.594-0.376c0.438-0.196,0.92-0.303,0.925-0.307l1.354-0.296
	c0.331-0.071,0.564-0.363,0.564-0.7l0.006-1.391v-3.811c0-0.398-0.318-0.718-0.721-0.718h-1.725h-17.335
	c-0.342,0-0.637,0.239-0.707,0.574c0,0-5.098,24.618-6.233,30.073c-1.146-5.452-6.317-30.057-6.317-30.057
	c-0.065-0.335-0.36-0.574-0.699-0.574h-16.301c-0.19,0-0.375,0.079-0.511,0.216c-0.137,0.137-0.207,0.323-0.203,0.515l0.074,5.277
	c0.011,0.345,0.261,0.639,0.597,0.697l1.422,0.246c0.088,0.015,0.463,0.1,0.766,0.242c0.261,0.125,0.563,0.375,0.655,0.476
	c0.055,0.063,0.221,0.34,0.28,0.557c0.048,0.184,0.056,0.433,0.048,0.501c0,0.012,0,0.06,0,0.069l0.021,33.969l-4.028-0.014
	c-0.321-0.003-0.609,0.212-0.693,0.521c0,0-3.264,11.477-3.286,11.547c-0.014,0.039-0.155,0.375-0.185,0.439
	c-0.154,0.316-0.397,0.66-0.519,0.787c-0.126,0.119-0.634,0.502-0.906,0.645c0,0-0.177,0.072-0.229,0.09
	c-0.166,0.004-1.165,0.01-1.344,0.01c-0.126-0.035-0.929-0.285-1.478-0.449c0-1.035-0.034-47.82-0.034-47.82
	c0.008-0.044,0.053-0.364,0.174-0.624c0.036-0.074,0.221-0.305,0.409-0.485c0.161-0.103,0.803-0.412,1.502-0.668l1.136-0.414
	c0.283-0.105,0.468-0.373,0.468-0.675l0.008-4.922c0-0.192-0.079-0.375-0.215-0.511c-0.132-0.134-0.316-0.209-0.505-0.209h-1.728
	H156.58c-0.382,0-0.707,0.307-0.718,0.693c0,0-0.18,4.985-0.18,4.994c0,0.309,0.194,0.583,0.489,0.681l1.23,0.411
	c0.755,0.255,1.484,0.636,1.653,0.768c0.1,0.129,0.229,0.354,0.276,0.509c0.134,0.445,0.145,0.946,0.145,0.949v43.436
	c-0.008,0.111-0.048,0.564-0.145,0.885c-0.014,0.061-0.063,0.125-0.113,0.193c0.003,0,0.003-0.004,0.025-0.02
	c0,0-0.022,0.016-0.025,0.021l0,0c0,0,0,0-0.008,0c-0.056,0.027-0.239,0.119-0.239,0.119c-0.284,0.096-0.667,0.146-0.804,0.154
	l-1.594,0.117c-0.376,0.031-0.665,0.34-0.668,0.715l-0.008,1.605v3.5c0,0.318,0.211,0.596,0.513,0.689l1.23,0.371
	c0.645,0.195,6.272,1.9,10.147,3.213c3.901,1.318,11.841,4.34,12.731,4.68c0.014,0.004,0.797,0.305,1.381,0.523
	c0.053,0.039,0.1,0.072,0.152,0.102l6.133,2.723c-0.011-0.006,8.657,4.027,8.657,4.027c0.221,0.102,0.479,0.086,0.691-0.045
	c0.203-0.135,0.332-0.361,0.332-0.609l0.004-2.697v-3.355c0-0.287-0.178-0.551-0.443-0.66l-1.064-0.441l-0.946-0.492
	c-0.331-0.207-0.593-0.439-0.64-0.494c-0.134-0.176-0.392-0.588-0.486-0.867c-0.137-0.406-0.152-0.838-0.152-0.844
	c0,0,0.026-25.63,0.037-35.017c1.606,7.396,8.347,38.323,8.347,38.323s0.123,0.545,0.307,0.76c0.18,0.213,0.666,0.182,0.666,0.182
	h1.762c0,0,0.291-0.037,0.512-0.242c0.221-0.207,0.368-0.67,0.368-0.67s6.564-31.359,8.071-38.583
	c-0.008,10.086-0.029,48.445-0.029,48.445c-0.023,0.68-0.147,1.389-0.218,1.6c-0.14,0.184-0.405,0.527-0.57,0.623
	c-0.222,0.131-0.639,0.236-0.8,0.262l-1.464,0.225c-0.35,0.057-0.607,0.354-0.61,0.707l-0.008,1.48v3.926
	c0,0.398,0.321,0.717,0.715,0.717h20.543c0.189,0,0.376-0.072,0.51-0.211c0.132-0.135,0.21-0.316,0.21-0.506
	C232.489,70.953,232.445,65.42,232.445,65.42 M211.228,70.959v-3.92l0.012-1.484l1.462-0.225c0.161-0.025,0.7-0.141,1.058-0.35
	c0.291-0.17,0.581-0.555,0.78-0.807c0,0,0.034-0.049,0.066-0.092c0.133-0.285,0.27-1.221,0.291-1.949c0,0,0.037-52.595,0.037-54.93
	c-0.053,0-0.053,0-0.103,0c-0.303,1.443-9.324,44.631-9.324,44.631s-0.1,0.311-0.195,0.414c-0.092,0.098-0.31,0.098-0.31,0.098
	l-1.359-0.02c0,0-0.194,0.023-0.327-0.105c-0.13-0.123-0.181-0.391-0.181-0.391s-9.338-43.06-9.666-44.588
	c-0.011,7.263-0.045,41.711-0.045,41.711c0,0.008,0.019,0.537,0.188,1.053c0.129,0.379,0.432,0.863,0.615,1.096
	c0.077,0.102,0.405,0.395,0.818,0.648c0.504,0.32,1.041,0.541,1.046,0.541l1.061,0.443v3.352l-0.004,2.701l-8.672-4.029
	l-5.087-2.262l-1.76-0.779l-0.833-0.318c-0.089-0.033-8.671-3.305-12.779-4.695c-4.111-1.395-10.107-3.203-10.171-3.217
	l-1.226-0.373v-3.5l0.008-1.602l1.599-0.119c0.14-0.008,0.589-0.063,0.968-0.188c0.258-0.084,0.473-0.227,0.531-0.285
	c0.084-0.086,0.231-0.271,0.299-0.506c0.116-0.398,0.158-0.908,0.169-1.092c0-0.096,0-43.447,0-43.447
	c0-0.007-0.008-0.595-0.169-1.145c-0.081-0.285-0.288-0.621-0.438-0.805c-0.221-0.226-1.172-0.685-1.961-0.95l-1.223-0.412
	l0.177-4.967h17.447h1.723v4.921l-1.134,0.413c-0.688,0.252-1.5,0.622-1.717,0.784c-0.221,0.207-0.52,0.551-0.607,0.746
	c-0.166,0.36-0.221,0.779-0.236,0.921c0,0.143,0.034,47.101,0.034,48.347c0.681,0.213,1.564,0.518,1.715,0.555
	c0.141,0.037,0.436,0.105,0.438,0.105c0.313,0.047,1.275,0.02,1.501-0.025c0.043-0.01,0.184-0.037,0.437-0.172
	c0.344-0.174,0.91-0.6,1.091-0.773c0.199-0.197,0.486-0.621,0.671-0.986c0,0,0.202-0.508,0.21-0.514l3.294-11.583l4.033,0.016
	l0.722-0.009l-0.007-0.709l-0.016-33.909v-0.058v-0.039c0.005-0.104,0-0.435-0.074-0.719c-0.089-0.333-0.313-0.714-0.441-0.854
	c-0.145-0.158-0.521-0.474-0.884-0.645c-0.376-0.174-0.807-0.274-0.954-0.3l-1.411-0.246l-0.085-5.278h16.3
	c0,0,6.704,31.907,7.024,33.428c0.421-2.046,6.933-33.447,6.933-33.447h17.336h1.724v3.81v1.392l-1.362,0.293
	c-0.004,0.003-0.546,0.123-1.062,0.353c-0.365,0.163-0.684,0.404-0.799,0.521c-0.174,0.169-0.405,0.49-0.494,0.739
	c-0.124,0.32-0.166,0.687-0.169,0.813c0,1.173,0.034,71.128,0.034,71.128c0,0.008,0.011,0.352,0.18,0.719
	c0.092,0.203,0.409,0.604,0.625,0.824c0.097,0.072,0.413,0.273,0.763,0.396c0.336,0.115,0.723,0.178,0.844,0.191l1.522,0.174
	l0.044,5.537H211.228L211.228,70.959z"/>
<path d="M12.708-16.571l-14.925-0.062c-0.191,0-0.375,0.075-0.509,0.211c-0.137,0.136-0.211,0.32-0.211,0.51v5.342
	c0,0.383,0.298,0.7,0.68,0.717l1.67,0.091c0.112,0.007,0.473,0.081,0.654,0.295c0.535,0.623,0.63,1.492,0.637,1.553
	c0,0.086,0.143,48.387,0.143,48.387l-0.002,1.016c-0.02,1.982-0.507,3.264-1.745,4.568c-1.174,1.23-2.466,1.803-3.965,1.746
	c-0.772-0.025-2.408-0.395-3.636-1.586c-0.71-0.697-1.423-2.359-1.433-3.354c-0.01-1.182-0.232-49.658-0.234-50.149
	c-0.012-0.555,0.12-1.559,0.449-1.992C-9.48-9.6-8.848-9.79-8.562-9.822l1.537-0.168c0.363-0.041,0.641-0.347,0.641-0.709
	l0.021-5.229c0-0.189-0.074-0.374-0.211-0.508c-0.131-0.137-0.318-0.21-0.509-0.21h-19.59c-0.188,0-0.371,0.074-0.508,0.21
	c-0.136,0.134-0.208,0.319-0.208,0.508l0.005,5.198c0.004,0.384,0.308,0.701,0.692,0.715c0.007,0,0.835,0.037,1.426,0.15
	c0.201,0.039,0.622,0.118,1.25,0.701c0.297,0.275,0.449,0.909,0.449,1.39l0.203,51.07h-0.569c-0.367,0-0.672,0.271-0.72,0.631
	l-1.175,9.305c-0.151,1.078-0.582,4.051-0.724,4.766c-0.124,0.643-0.441,1.367-0.542,1.604l-0.049,0.117
	c-0.241,0.578-0.704,1.141-1.373,1.684c-1.389,1.121-2.902,1.225-2.917,1.225c-0.004,0-2.329-0.031-3.538-0.039
	c0-1.344-0.042-25.729-0.042-25.729s-0.179-43.516-0.186-45.207c0.03-0.149,0.152-0.597,0.548-0.973
	c0.227-0.213,0.872-0.437,1.223-0.5l1.421-0.255c0.34-0.063,0.592-0.356,0.595-0.704l0.007-1.444v-3.656
	c0-0.396-0.321-0.719-0.719-0.719h-1.726h-18.645c-0.189,0-0.376,0.075-0.509,0.211c-0.135,0.136-0.208,0.317-0.208,0.508l0.02,4.91
	c0,0.325,0.215,0.606,0.529,0.692l1.506,0.414c0.459,0.121,0.931,0.248,1.265,0.626c0.395,0.448,0.443,1.058,0.443,1.065
	c0,0,0,0,0,0.003c0,0.327,0.178,50.472,0.178,50.472l0.017,7.521l-0.048,12.281c0,0.008,0.005,0.15,0.005,0.15
	c0,0.584-0.137,1.174-0.23,1.309c-0.551,0.803-1.226,0.922-1.258,0.93c0.005,0-1.469,0.205-1.469,0.205
	c-0.348,0.053-0.607,0.342-0.618,0.689l-0.052,1.496c0,0.021-0.02,4.068-0.02,4.068c0,0.193,0.075,0.375,0.209,0.512
	c0.137,0.137,0.319,0.211,0.513,0.211l33.104-0.09c0.369,0,0.679-0.285,0.712-0.654l1.295-14.846
	c0.037,0.025,0.078,0.055,0.113,0.082l0.114,0.078c0.846,0.598,1.801,1.264,3.661,1.887c1.396,0.459,3.092,0.727,4.91,0.762
	c0.939,0.016,2.594-0.117,5.144-0.855c1.436-0.414,2.838-1.141,4.02-1.801c3.293-1.838,4.991-4.441,6.352-6.533
	c0-0.008,0.108-0.17,0.108-0.17c0.92-1.414,1.62-3.783,1.966-5.531c0.398-1.992,0.467-3.74,0.467-3.816c0-0.012,0-0.076,0-0.076
	c0-0.061-0.107-47.172-0.107-48.189c0.034-0.385,0.225-0.931,0.361-1.036c0.69-0.521,1.597-0.774,1.606-0.777
	c-0.004,0.001,1.278-0.34,1.278-0.34c0.313-0.081,0.533-0.367,0.533-0.692l0.011-4.931C13.427-16.245,13.106-16.569,12.708-16.571
	 M12.697-10.92l-1.285,0.34c-0.009,0.001-1.037,0.278-1.848,0.897C9.146-9.367,8.949-8.498,8.917-8.123
	C8.917-7.94,9.026,40.1,9.026,40.1l-0.002,0.066c0,0.07-0.063,1.758-0.449,3.695c-0.32,1.605-1,3.955-1.864,5.277l-0.107,0.17
	c-1.321,2.027-2.962,4.553-6.101,6.301c-1.146,0.643-2.499,1.346-3.869,1.738c-2.465,0.713-4.042,0.842-4.932,0.824
	c-1.744-0.031-3.37-0.281-4.691-0.723c-1.759-0.588-2.63-1.197-3.475-1.789l-0.118-0.08c-0.127-0.092-0.281-0.209-0.456-0.336
	l0.107-1.199c0.366,0.303,0.69,0.541,0.929,0.707l0.116,0.086c0.822,0.57,1.594,1.117,3.212,1.656
	c1.231,0.408,2.748,0.639,4.395,0.674c0.819,0.014,2.288-0.109,4.632-0.789c1.272-0.365,2.562-1.037,3.656-1.648
	c2.922-1.631,4.488-4.037,5.747-5.971l0.109-0.168c0.737-1.127,1.397-3.289,1.723-4.928c0.369-1.861,0.43-3.471,0.433-3.535
	L7.91-8.214c0,0.025,0.111-1.566,1.05-2.272c0.982-0.746,2.189-1.068,2.199-1.068c0.318-0.084,0.54-0.372,0.54-0.7v-1.882
	c0-0.396-0.32-0.717-0.716-0.719l-11.474-0.046c-0.19,0-0.376,0.076-0.508,0.211c-0.137,0.133-0.213,0.319-0.213,0.508v1.973
	c0,0.392,0.314,0.708,0.704,0.72c0.012,0,1.158,0.043,1.888,0.9c0.944,1.103,1.053,2.566,1.053,2.581
	c0,0.43,0.162,47.15,0.137,49.51c-0.02,2.408-0.685,4.125-2.222,5.738c-1.357,1.428-3.064,2.113-5.231,2.102
	c-1.563-0.008-3.466-0.813-4.857-2.049c-1.335-1.193-1.916-3.648-1.919-4.422l-0.234-50.153c0-0.036-0.047-1.922,0.796-3.039
	c0.798-1.057,2.342-1.217,2.356-1.217c0.367-0.038,0.651-0.345,0.651-0.719v-1.947c0-0.396-0.317-0.717-0.718-0.717h-16.139
	c-0.397,0-0.72,0.321-0.72,0.717v1.857c0,0.373,0.289,0.68,0.658,0.716c0.013,0,1.207,0.121,2.215,1.058
	c1.122,1.04,0.94,3.132,0.938,3.153c0,0.022-0.001,0.05-0.001,0.072l0.234,50.09c-0.003,0.027-0.015,0.234-0.018,0.559v0.719h0.735
	l4.127,0.012l-0.744,8.504l-0.083,0.92l-0.108,1.248l-0.071,0.869l-1.331,15.297l-33.106,0.09l0.02-4.049l0.052-1.49l1.475-0.219
	c0.039-0.004,1.003-0.148,1.744-1.232c0.238-0.348,0.353-1.176,0.353-1.713c0-0.037,0-0.072,0-0.109v-0.037l0.046-12.285
	l-0.025-7.523c0,0-0.17-50.308-0.17-50.519l0,0c-0.005-0.006-0.05-0.842-0.625-1.495c-0.479-0.543-1.108-0.711-1.614-0.847
	l-1.509-0.414l-0.018-4.906h18.646h1.726v3.652l-0.009,1.445l-1.42,0.255c-0.347,0.062-1.195,0.312-1.591,0.683
	c-0.597,0.568-0.749,1.272-0.773,1.422c0,0.292,0.186,45.287,0.186,45.287s0.04,24.002,0.042,26.436
	c1.472,0.016,4.208,0.043,4.296,0.045c0.111-0.006,1.775-0.129,3.33-1.385c0.762-0.617,1.292-1.277,1.583-1.965
	c0,0,0.025-0.064,0.044-0.109c0.111-0.252,0.45-1.031,0.591-1.746c0.143-0.742,0.577-3.746,0.729-4.816l1.18-9.307h0.579
	l0.696,0.002l0.012-0.723c-0.006-1.951-0.202-50.97-0.202-51.071c0-0.606-0.186-1.459-0.676-1.916
	c-0.744-0.688-1.29-0.82-1.61-0.884c-0.657-0.124-1.529-0.16-1.529-0.16l-0.011-5.197h19.591l-0.015,5.228l-1.542,0.168
	c-0.315,0.031-1.223,0.247-1.657,0.822c-0.511,0.68-0.6,1.986-0.595,2.43c0,0,0.231,48.951,0.241,50.146
	c0.009,1.199,0.807,3.051,1.649,3.865c1.35,1.314,3.127,1.754,4.111,1.791c1.894,0.068,3.337-0.738,4.506-1.973
	c1.361-1.434,1.924-2.896,1.942-5.053c0.005-0.156,0.005-0.506,0.005-1.023c0-7.188-0.136-46.725-0.144-48.433
	C1.413-8.048,1.304-9.129,0.614-9.936c-0.43-0.505-1.155-0.547-1.164-0.549l-1.668-0.087v-5.339l14.923,0.061L12.697-10.92
	 M-16.25,43.545c-0.137-0.148-0.328-0.234-0.529-0.234l-4.14-0.01c0.002-0.348,0.013-0.561,0.013-0.561l-0.233-50.091
	c0,0,0.24-2.448-1.164-3.75c-1.219-1.131-2.644-1.247-2.644-1.247v-1.857h16.139v1.95c0,0-1.853,0.164-2.865,1.506
	c-1.009,1.339-0.94,3.475-0.94,3.475s0.23,48.841,0.235,50.149c0.005,0.852,0.598,3.566,2.158,4.957
	c1.654,1.473,3.742,2.221,5.335,2.236c1.879,0.012,3.969-0.451,5.756-2.332c1.783-1.877,2.393-3.824,2.417-6.221
	c0.023-2.4-0.141-49.562-0.141-49.562s-0.098-1.695-1.219-3.008c-0.963-1.127-2.422-1.153-2.422-1.153v-1.971l11.472,0.046v1.882
	c0,0-1.335,0.342-2.451,1.194c-1.224,0.924-1.338,2.846-1.338,2.846l0.114,48.313c0,0-0.059,1.598-0.42,3.424
	c-0.35,1.75-0.991,3.711-1.622,4.676c-1.286,1.98-2.754,4.313-5.601,5.906c-0.996,0.551-2.272,1.227-3.505,1.584
	c-2.282,0.662-3.697,0.771-4.421,0.756c-1.507-0.025-2.961-0.232-4.18-0.631c-1.591-0.535-2.285-1.049-3.144-1.65
	c-0.292-0.203-0.744-0.545-1.261-1.002l0.789-9.074C-16.043,43.891-16.112,43.691-16.25,43.545z"/>
<path d="M-49.106-5.858l-3.713-3.691c0,0-0.195-0.158-0.284-0.459c-0.098-0.34-0.098-0.884-0.084-1.141l0.497,0.571l2.638,0.72
	l0.849,0.95L-49.106-5.858z"/>
<path d="M-32.604-16.377c0,0,0.223-0.215,0.547-0.203c0.328,0.014,0.635,0.179,0.96,0.46c0.321,0.284,3.448,3.365,3.448,3.365
	l0.437,0.015l0.352,2.456l1.782,0.128l1.497,0.817l0.412,3.097l-0.035,6.117c0,0-0.729-0.536-1.636-0.184
	c-0.734,0.287-1.3,1.13-1.3,1.726V56.6l-0.479,3.039l-1.47,1.924l-2.458,1.313l-1.046,0.129l-3.758-0.086l-0.029-7.844
	l-0.211-63.636l0.662-1.017l1.883-0.624l1.243-0.322v-5.637L-32.604-16.377z"/>
<path d="M41.909-16.133c0,0,0.337-0.455,0.63-0.447c0.464,0.014,0.607,0.322,1.259,0.952c0.65,0.628,3.579,3.503,3.579,3.503h0.503
	l0.094,1.372l0.499,0.378l2.655,0.92l0.419,1.219l-3.433,21.974c0,0-4.235-0.02-4.376-0.02c-0.139,0-0.341-0.081-0.479-0.22
	c-0.14-0.14-8.652-8.549-8.652-8.549l0.041,12.285l-0.097,15.203l-1.06,2.376l-3.135,1.199l-3.118-1.418l-0.758-2.476l0.061-38.296
	l1.338-2.339l2.379-0.857l2.714,1.238L34.468-4.7l0.042,8.688l0.317,0.343l7.909-0.102l0.12-20.277L41.909-16.133z"/>
<path d="M58-1.936c0.017-0.089,0.068-0.136,0.137-0.136c0.066,0,0.126,0.062,0.148,0.136c0.024,0.075,2.52,14.729,2.57,15.006
	c0.05,0.297-0.098,0.687-0.505,0.695c-0.411,0.007-3.77-0.008-4.121-0.008c-0.347,0-0.617-0.293-0.56-0.702
	C55.756,12.42,57.986-1.846,58-1.936z"/>
<path d="M72.489-16.214c0,0,0.205-0.438,0.673-0.428c0.468,0.014,0.864,0.513,1.265,0.902c0.402,0.39,3.893,3.875,3.893,3.875h0.45
	l-0.575,2.09l-0.239,2.599l0.039,9.829l0.883,3.834l1.795,2.398l5.393,3.834l5.395,3.475l0.76,0.999l0.041,6.952l-1.276,2.039
	l-2.163,0.64l-2.475-1.119l-0.999-2.317l-0.081-7.634l-0.68-0.438l-0.193-0.104c0,0-3.579-4.778-3.715-4.974
	c-0.13-0.195-0.42-0.165-0.355,0.152c0.059,0.314,0.987,5.196,0.987,5.196l-3.16-0.106l-0.197,0.285l0.029,7.958l-0.044,5.84
	l-1.453-0.522l-1.423-1.437l-0.853-5.667L72.8,12.591l-1.635-9.903L69.356-9.015l0.416-0.718l1.233-0.388l2.276,0.18l0.267-0.51
	l-0.087-5.783L72.489-16.214z"/>
<path d="M104.018-16.617c0.549-0.008,0.696,0.294,0.897,0.524c0.051,0.058,0.127,0.128,0.127,0.128h0.287l0.099,0.255l0.067,4.958
	l0.422,0.359l2.994,1.021l0.363,0.51l0.047,19.106l-3.994-0.042c0,0-7.667-7.634-7.876-7.816c-0.208-0.179-0.479-0.404-0.493,0.109
	c-0.018,0.506,0,3.369,0,3.369l-5.971-3.929l-1.205-1.318v-7.435l1.123-1.356l1.517-0.521l1.995,0.321l1.84,1.958l0.602,2.917
	l-0.039,4.314l0.198,0.278l6.991,0.12l0.52-0.241l-0.201-17.02l-0.681-0.093L104.018-16.617z"/>
<path d="M185.7,34.635c0.058-0.564,0.42-1.377,0.501-0.057c0.088,1.318,0.114,9.063,0.088,9.627
	c-0.026,0.594-0.261,1.135-0.674,1.572c-0.494,0.521-1.175,0.594-1.327,0.594c-0.278,0-0.614-0.201-0.308-1.941
	C184.288,42.688,185.7,34.635,185.7,34.635z"/>
<path d="M174.814-16.14c0,0,0.468-0.489,0.872-0.485c0.568,0.008,0.862,0.478,1.343,0.967c0.471,0.484,4.338,4.23,4.338,4.23h0.568
	l0.044,0.777l0.306,0.436l2.692,0.702l0.854,0.992l-0.029,8.077c0,0-2.579-0.013-3.145,0c-0.794,0.014-1.593,0.914-1.604,1.734
	c-0.019,0.827,0.04,25.306,0.04,25.306l-3.112,11.159l-1.171,2.102l-1.617,0.658l-1.979-0.33l-0.776-0.393l0.029-48.447l0.839-0.993
	l2.815-1.137l-0.063-5.364L174.814-16.14z"/>
<path d="M-7.493-16.214c0,0,0-0.435,0.411-0.433c0.449,0,0.788,0.455,1.199,0.866l2.539,2.486h0.579l0.149,2.841l0.54,0.27
	l2.065,0.239l1.049,1.468v8.391c0,0-0.815-0.335-1.416-0.063c-0.676,0.308-1.146,0.953-1.146,1.677c0,0.812,0,45.396,0,45.396
	l-1.845,1.113l-2.935,0.023l-2.221-1.137l-1.705-2.938L-10.5-8.866l0.988-1.2l2.73-0.3v-5.69L-7.493-16.214z"/>
<path d="M197.738-16.165c0,0,0.401-0.464,0.877-0.464c0.468,0,0.744,0.44,1.26,0.972c0.513,0.529,9.647,9.578,9.647,9.578h0.618
	l-2.316,11.366l-2.042,9.832l-0.221,0.021L203.09,3.432l-2.659-12.285l-1.595-7.293L197.738-16.165z"/>
<path d="M205.685,68.723c-0.21-0.131-21.186-12.814-47.693-20.451c-21.392-6.162-42.672-9.287-63.245-9.287
	c-14.886,0-33.514,0.928-58.828,7.809C8.271,54.309-14.546,67.809-14.759,67.932c-0.159,0.098-0.214,0.301-0.12,0.459
	c0.098,0.162,0.304,0.215,0.461,0.125c0.215-0.129,22.954-13.582,50.514-21.072c25.241-6.863,43.809-7.791,58.65-7.791
	c20.507,0,41.725,3.119,63.064,9.264c26.412,7.609,47.314,20.252,47.522,20.383c0.16,0.092,0.365,0.043,0.462-0.113
	C205.894,69.031,205.843,68.82,205.685,68.723 M238.089-0.25c0.854-0.43,2.269-0.444,2.537-0.454
	c0.513-0.02,0.575-0.518,0.575-0.518s0.021-4.955,0-5.514c-0.015-0.56-0.136-0.641-0.299-0.798c-0.158-0.161-7.85-7.991-8.231-8.417
	c-0.387-0.431-0.497-0.678-1.131-0.692c-0.402-0.009-0.66,0.379-0.66,0.379l1.098,0.221l-0.029,5.423l-2.91,0.808l-0.747,0.871
	l-0.182,72.002l0.332,0.977l1.422,0.594l2.2,0.406l0.087,5.875l-0.169,0.248l-20.742,0.045l-0.302-0.184l-0.258-0.934l-0.66-0.018
	l-2.811-2.863v-4.785c0,0,0-0.646-0.089-0.904c-0.092-0.258-0.376-0.488-0.376-0.488l-2.726-2.824c0,0-0.61-0.68-0.733-0.912
	c-0.121-0.236-0.105-0.705-0.105-0.705s0.032-2.369,0.032-2.697c0-0.33,0.299-0.273,0.417-0.184
	c0.116,0.092,6.651,6.354,6.651,6.354l4.251,0.088l0.115-47.061l-0.667-0.101l-8.142,39.07l-0.471,0.623l-2.114-0.047l-0.42-0.566
	l-8.418-39.094l-0.6,0.15l-0.074,35.026l0.329,2.16l1.352,1.133l2.062,0.766l0.019,6.533l-0.166,0.373
	c0,0-12.777-5.949-20.259-8.822c-7.485-2.869-20.835-6.98-20.835-6.98l0.014-5.691l2.815-0.215l0.739-0.703l0.042-45.199
	l-0.671-0.991l-3.209-1.346l0.06-4.642l-0.602,0.01c0,0-0.165-0.25-0.415-0.54c-0.251-0.287-0.416-0.608-0.896-0.629
	c-0.234-0.009-0.449,0.279-0.449,0.279l0.733,0.069l-0.121,5.365l-1.798,0.959l-0.719,1.287l-0.15,42.283l0.689,1.375l2.032,1.076
	l1.112,0.363l0.155,6.201l-0.545,0.242l-6.796-1.619l-12.621-2.875l-0.029-0.693l-7.673-7.667c0,0,0-8.331,0-8.783
	c0-0.449,0.302-0.537,0.57-0.238c0.354,0.394,4.619,4.494,4.619,4.494l4.971-0.031l1.17,0.452l-0.029-33.409l-0.747-2.428
	l-2.549-1.379l0.028,10.758l-7.937,0.059V-5.74l-1.144-1.918l-1.524-0.418l-4.197-0.18V5.501h3.147l0.924-1.353l0.307-1.916
	l0.324-0.331h6.506l0.39,0.239l-0.089,14.564l-0.271,0.36l-5.965,0.15l-0.66-0.238l-0.474-1.44l-0.724-1.889l-0.776-0.329h-2.55
	l0.027,15.731l1.26,1.017l1.89,0.27l0.629,0.241l0.152,5.604l-0.602,0.449l-18.727-1.857l-0.15-0.361l0.123-5.182l0.058-0.298
	l2.246-0.361l0.9-1.137l0.357-1.078l-0.199-10.167c0,0-6.762-6.758-7.102-7.13c-0.337-0.376-0.745-0.232-0.745-0.232l2.069,2.747
	l1.114,3.467l0.063,9.878l-1.115,4.124l-2.369,3.043l-3.889,2.431l-3.801,0.658l-2.93-0.238l-5.019-1.594l0.162,1.316l-0.44,0.277
	l-6.951,0.059l-0.418,0.061l-16.849,2.012l-0.316-0.137l-0.082-5.619l1.216-0.4l1.213-0.774l0.019-0.815l-1.391-8.544l-6.634-0.042
	l-1.792,10.854l0.359,0.381l2.451-0.061l0.317,0.257l0.021,5.237l-0.319,0.398l-4.361,0.959l-8.246,1.65l-0.696-0.02L42.666,39.5
	l0.081-3.826l0.376-0.936l1.57-1.514l0.585-1.465l0.703-3.498l1.026-7.71c0,0-2.689-2.559-3.327-3.229
	c-0.637-0.674-0.794-0.665-1.004-0.665c-0.208,0-0.189,0.374-0.189,0.374l0.573,0.203v7.88l-0.206,6.289l-0.123,2.92l-0.47,1.572
	l-1.989,3.521l-2.826,2.777L31.29,45.02l-5.555,0.186l-3.799-0.789l-3.659-1.895l-1.163-1.383l-1.962-2.799l-0.832-2.699
	L14.03-7.101l0.688-2.599l0.664-1.493l1.291-1.968c0,0-2.729-2.742-3.028-3.054c-0.298-0.315-0.567-0.363-0.891-0.363
	s-0.399,0.274-0.399,0.274l0.678,0.202v5.273l-0.959,0.438l-2.116,0.92L9.282-8.642v50.566l-0.98,4.145l-0.904,2.492l-1.659,2.633
	l-1.582,2.035L1.823,55.26l-2.489,1.586l-4.222,1.281l-4.294,0.451l-4.447-0.752l-1.763-0.889c0,0,0.823-10.846,0.842-11.246
	c0.015-0.404-0.107-0.521-0.17-0.596c-0.064-0.066-1.011-1.006-1.19-1.205c-0.18-0.199-0.504-0.584-0.871-0.584
	c-0.371,0-0.366,0.342-0.366,0.342l0.711,0.383l-2.153,26.672l-0.482,0.477l-33.122,0.158l-0.381-0.635c0,0-0.351-0.035-0.351,0.285
	c0,0.311,0.149,0.523,0.42,0.789c0.268,0.271,8.686,8.629,8.686,8.629s33.332-0.002,33.448-0.002c0.18,0,0.279-0.209,0.321-0.533
	c0.043-0.33,0.273-2.43,0.302-2.76c0.029-0.33,0.208-0.627,0.509-0.809c0.301-0.178,5.781-3.057,6.139-3.264
	c0.363-0.209,0.9-0.15,1.082,0c0.18,0.148,4.072,4.135,4.942,4.943c0.867,0.809,1.918,2.486,4.107,2.461
	c0.958-0.02,2.035-0.412,2.608-1.025c0.725-0.781,0.805-1.828,0.805-1.828l49.322-0.023c0,0,2.967,3.232,8.272,3.082
	c5.301-0.148,7.969-2.994,7.969-2.994l2.818,2.545l16.152-0.061c0,0,0.237-0.209,0.359-0.598c0.121-0.393,0.211-1.859,0.211-1.859
	s1.065,1.23,2.787,1.98c1.145,0.498,2.773,0.615,3.861,0.625c1.299,0.018,2.857-0.186,3.662-0.834
	c0.825-0.678,0.987-1.35,0.923-1.887l2.813,2.633c0,0,17.146,0.057,17.597,0.031c0.449-0.031,0.474-0.42,0.474-0.42l0.092-2.244
	c0,0,1.209,1.184,3.235,2.004c1.594,0.65,3.907,0.973,5.095,0.99c1.263,0.012,3.518-0.492,5.001-1.197
	c1.692-0.807,2.55-1.83,2.55-1.83l50.313-0.063c0,0,0.673,1.139,1.734,1.893c0.655,0.463,1.606,0.678,2.188,0.691
	c0.607,0.01,1.315-0.229,1.891-0.691c0.873-0.705,1.256-1.74,1.256-1.74s9.681,0.039,10.761,0c1.527-0.057,2.245-0.482,2.363-1.648
	c0.029-0.305,0.513-0.123,0.387-0.238c-0.113-0.121,4.501,4.346,4.501,4.346s21.212-0.061,21.544-0.061
	c0.326,0,0.536-0.42,0.536-0.752c0-0.324-0.029-4.941-0.058-5.662c-0.029-0.717-0.332-0.926-0.539-1.135
	c-0.213-0.211-1.648-1.711-2.516-2.609c-0.873-0.9-0.979-1.986-0.979-1.986V1.339C237.04,0.86,237.274,0.158,238.089-0.25
	 M17.501,47.209c0.408-1.764,0.769-3.893,0.769-3.893l5.247,5.342l-7.102,2.492C16.415,51.15,17.096,48.977,17.501,47.209
	 M59.858,72.135c-3.221,0-6.085-1.523-7.931-3.889c-5.353-0.008-52.95-0.049-52.95-0.053c-0.542,0-1.014,0.486-1.021,1.041
	c-0.007,0.557,0.487,1.055,1.076,1.072c0.312,0,0.57-0.199,0.781-0.396c0.219-0.211,0.922-0.646,1.41-0.219
	c0.395,0.414,0.237,0.99-0.203,1.471c-0.335,0.363-1.207,0.865-1.988,0.857c-1.323-0.008-2.781-0.943-2.806-2.793
	c-0.018-1.533,1.378-2.729,2.384-2.768l54.562,0.059c1.449,2.166,3.897,3.59,6.686,3.59c4.454,0,8.067-3.633,8.067-8.107
	s-3.614-8.104-8.067-8.104c-2.709,0-5.098,1.344-6.564,3.406c-0.813,0.002-17.198,0.059-17.228,0.059
	c-0.822,0.023-2.724-0.721-2.736-2.811c-0.01-1.762,1.542-2.789,2.711-2.77c1.071,0.021,1.872,0.461,2.251,1.061
	c0.257,0.402,0.357,1.059-0.038,1.367c-0.372,0.289-0.95,0.232-1.233-0.15c-0.154-0.205-0.494-0.545-0.911-0.572
	c-0.526,0.025-1.111,0.342-1.113,1.076c-0.007,0.678,0.643,1.061,1.05,1.066l16.021-0.063c1.852-2.258,4.651-3.703,7.788-3.703
	c5.57,0,10.084,4.541,10.084,10.137S65.428,72.135,59.858,72.135 M58.003,61.051c0.313-0.699,1.013-1.193,1.834-1.193
	c1.111,0,2.011,0.912,2.011,2.027c0,1.121-0.9,2.025-2.011,2.025c-0.797,0-1.474-0.463-1.801-1.135l-47.89-0.063
	c-0.473,0-0.854-0.385-0.854-0.859c0-0.479,0.384-0.863,0.857-0.859L58.003,61.051 M86.33,71.078
	c-0.009,0.121-0.112,0.213-0.234,0.213l-13.313-0.016c-0.127,0-0.233-0.104-0.237-0.232l-0.058-1.594c0-0.09,0.067-0.18,0.146-0.225
	l0.727-0.395c0.225-0.148,0.5-0.398,0.614-0.545c0.061-0.088,0.278-0.395,0.389-0.762c0.124-0.416,0.147-0.844,0.147-0.844
	s-0.067-16.033-0.067-16.305c0-0.004-0.117-1.133-0.117-1.143c-0.087-0.459-0.252-0.916-0.341-1.074
	c-0.048-0.08-0.23-0.365-0.572-0.586l-0.79-0.385c-0.082-0.037-0.153-0.135-0.153-0.223l0.015-1.699
	c0.002-0.125,0.098-0.227,0.219-0.236l8.762-0.717c0.068-0.008,0.133,0.018,0.184,0.063c0.046,0.043,0.078,0.105,0.078,0.174
	c0,0,0.028,1.848,0.028,1.85c0,0.1-0.064,0.193-0.163,0.227c-0.499,0.168-0.868,0.371-1,0.555c0,0-0.078,0.104-0.082,0.107
	c-0.114,0.141-0.265,0.334-0.33,0.545c-0.088,0.268-0.103,0.549-0.103,0.695c0,0,0,0.018,0,0.025
	c0.001,0.014,0.011,0.021,0.011,0.033c0,0.014,0,0.023,0,0.031c0,0,0,0.008,0,0.01c-0.015,0.129-0.02,1.094-0.02,2.52
	c0,4.928,0.059,15.318,0.059,15.41l0.013,0.084c0.032,0.352,0.089,0.938,0.266,1.318c0.192,0.422,0.527,0.611,0.702,0.611
	c0.23,0,0.924-0.219,1.471-0.852c0.31-0.355,0.615-0.963,0.921-1.801c0.085-0.24,0.376-1.086,0.575-1.971l0.394-2.148
	c0.021-0.115,0.124-0.207,0.242-0.205l2.346,0.061c0.068,0.004,0.129,0.029,0.171,0.08c0.046,0.051,0.068,0.117,0.059,0.182
	L86.33,71.078 M98.105,70.504c-0.236,0.225-0.44,0.365-0.89,0.535c0,0-0.982,0.289-0.994,0.295c0,0-0.2,0.049-0.235,0.055
	c0,0-0.812,0.096-0.841,0.102c0,0-2.536-0.006-2.555-0.006c-0.074-0.002-0.715-0.051-1.337-0.291
	c-0.695-0.266-1.266-0.732-1.472-0.945c-0.215-0.221-0.683-0.814-0.911-1.465c-0.271-0.754-0.308-1.549-0.312-1.645
	c0,0,0-11.529,0-11.543l0.004-0.123c0-0.244-0.044-0.387-0.092-0.441c-0.089-0.102-0.345-0.129-0.496-0.115h-2.334
	c-0.064,0-0.124-0.029-0.171-0.074c-0.041-0.045-0.07-0.105-0.07-0.17l0.015-2.43c0-0.131,0.109-0.236,0.241-0.236
	c0,0,2.427,0,2.442,0c0.168,0.012,0.329-0.016,0.384-0.064c0.047-0.043,0.081-0.164,0.079-0.338v-3.111
	c0-0.109,0.076-0.205,0.179-0.232l5.009-1.313c0.071-0.02,0.15-0.004,0.208,0.039c0.059,0.047,0.094,0.117,0.094,0.193v4.377
	c0,0.133,0.032,0.297,0.101,0.361c0.036,0.029,0.212,0.08,0.569,0.051H97.8c0.129,0,0.233,0.135,0.238,0.266l0.006,0.105
	l-0.074,1.139c-0.076,0.648-0.221,1.109-0.297,1.33c-0.035,0.094-0.121,0.154-0.228,0.154c0,0-2.397,0.008-2.664,0.008
	c-0.042,0.01-0.075,0.031-0.118,0.014c0,0-0.029-0.008-0.059-0.021c-0.098-0.004-0.334,0.041-0.407,0.104
	c-0.095,0.074-0.102,0.264-0.095,0.336v0.271c-0.012,6.221-0.012,9.939,0,10.461c0.006,0.373,0.078,1.301,0.59,1.803
	c0.475,0.467,1.39,0.488,1.565,0.488c0.282,0,0.744-0.025,1.131-0.109l0.699-0.236c0.072-0.023,0.166-0.016,0.23,0.025
	c0.064,0.049,0.109,0.113,0.109,0.191l0.022,1.656C98.447,70.057,98.391,70.24,98.105,70.504 M116.76,71.086
	c0,0.135-0.107,0.24-0.239,0.24h-6.377c-0.188,0-0.574-0.072-0.859-0.33c-0.353-0.314-0.593-0.793-0.642-0.889h-0.226
	c-0.156,0.127-0.873,0.688-1.443,0.959c-0.551,0.256-1.356,0.381-1.636,0.422l-0.619,0.002l-1.18,0.008
	c-0.779-0.021-2.039-0.508-2.932-1.402c-0.979-0.973-1.043-2.33-1.043-2.344c0,0-0.011-11.115-0.011-11.109
	c0-0.025-0.002-2.453,1.572-3.801c1.259-1.08,3.609-1.32,3.987-1.32c0.314,0,1.193,0.078,1.908,0.32
	c0.458,0.15,0.852,0.361,1.089,0.498c0,0,0.277,0.125,0.336,0.148c0.099,0.004,0.21-0.031,0.269-0.113
	c0.064-0.094,0.102-0.273,0.107-0.395c0,0,0-2.752,0-2.771c-0.009,0.016-0.027,0.01-0.032,0.025c0,0,0.014-0.033,0.027-0.064
	c0-0.027,0.005-0.059,0.005-0.059c0-0.213-0.077-0.564-0.18-0.795c-0.196-0.43-0.634-0.873-0.718-0.957
	c-0.148-0.137-0.523-0.473-0.933-0.629c-0.22-0.086-0.489-0.141-0.766-0.16C106.1,46.557,106,46.459,106,46.33v-1.832
	c0-0.063,0.028-0.123,0.07-0.172c0.048-0.041,0.104-0.066,0.169-0.066l0,0l2.921,0.018c2.099,0.043,4.297,0.387,4.926,0.494
	c0.116,0.02,0.197,0.119,0.197,0.238c0,0.207,0.018,21.34,0.042,21.992c0,0.012,0.032,1.164,0.67,1.656
	c0.483,0.373,1.232,0.434,1.53,0.439c0.128,0.006,0.234,0.113,0.234,0.242V71.086 M189.664,72.02
	c-0.778,0.008-1.65-0.494-1.99-0.857c-0.434-0.48-0.593-1.055-0.194-1.471c0.486-0.428,1.188,0.008,1.406,0.219
	c0.211,0.195,0.469,0.396,0.781,0.396c0.589-0.018,1.086-0.516,1.075-1.072c-0.008-0.555-0.476-1.041-1.02-1.041
	c0,0.004-47.597,0.045-52.952,0.053c-1.843,2.365-4.701,3.889-7.929,3.889c-5.568,0-10.082-4.537-10.082-10.135
	c0-5.594,4.514-10.137,10.082-10.137c3.139,0,5.943,1.445,7.789,3.703l16.991,0.064c0.405-0.008,1.051-0.389,1.051-1.068
	c-0.008-0.734-0.597-1.049-1.116-1.076c-0.421,0.025-0.755,0.365-0.91,0.574c-0.284,0.381-0.862,0.439-1.233,0.148
	c-0.395-0.309-0.296-0.965-0.041-1.367c0.379-0.6,1.18-1.043,2.25-1.061c1.175-0.02,2.723,1.008,2.712,2.77
	c-0.012,2.09-1.908,2.836-2.73,2.811c-0.04,0-17.386-0.057-18.2-0.059c-1.462-2.063-3.849-3.406-6.562-3.406
	c-4.459,0-8.069,3.629-8.069,8.104s3.61,8.107,8.069,8.107c2.789,0,5.242-1.424,6.688-3.59l54.562-0.059
	c1.006,0.039,2.402,1.234,2.379,2.768C192.448,71.076,190.994,72.012,189.664,72.02 M178.579,60.994
	c0.476-0.004,0.861,0.381,0.861,0.859c0,0.475-0.386,0.859-0.857,0.859l-47.938,0.063c-0.328,0.672-1.01,1.135-1.803,1.135
	c-1.112,0-2.017-0.904-2.017-2.025c0-1.117,0.904-2.027,2.017-2.027c0.818,0,1.52,0.494,1.835,1.193L178.579,60.994 M206.679,69.727
	c-0.395,0.643-1.241,0.846-1.883,0.453c-0.21-0.125-20.887-12.668-47.275-20.27c-21.241-6.119-42.364-9.221-62.774-9.221
	c-14.775,0-33.263,0.918-58.381,7.748c-26.944,7.326-49.311,20.41-50.256,20.971c0,0-0.631,0.244-1.042,0.143
	c-0.548-0.1-0.836-0.631-0.836-0.631c-0.384-0.65-0.165-1.492,0.491-1.881c0.952-0.564,23.618-13.822,50.922-21.246
	c25.437-6.914,44.146-7.846,59.102-7.846c20.671,0,42.046,3.141,63.54,9.332c26.725,7.695,47.725,20.436,47.938,20.561
	C206.873,68.234,207.073,69.082,206.679,69.727 M106.788,54.49c-1.669,0-1.951,1.57-1.951,1.98c0,0.275,0.026,8.842,0.021,9.375
	c-0.013,0.854,0.764,1.854,2.072,1.854c1.273,0,1.973-1.168,1.986-1.844c0.011-0.504,0.015-9.307,0-9.535
	C108.892,55.992,108.617,54.49,106.788,54.49z"/>
</svg>
